<?xml version="1.0" encoding="UTF-8"?>
<!DOCTYPE svg PUBLIC "-//W3C//DTD SVG 1.1//EN" "http://www.w3.org/Graphics/SVG/1.1/DTD/svg11.dtd">
<svg xmlns="http://www.w3.org/2000/svg" version="1.1" width="3715px" height="3120px" style="shape-rendering:geometricPrecision; text-rendering:geometricPrecision; image-rendering:optimizeQuality; fill-rule:evenodd; clip-rule:evenodd" xmlns:xlink="http://www.w3.org/1999/xlink">
<g><path style="opacity:0.786" fill="#707070" d="M 3660.5,661.5 C 3658.04,663.793 3655.71,666.293 3653.5,669C 3653.83,669.333 3654.17,669.667 3654.5,670C 3653.17,671 3651.83,672 3650.5,673C 3650.83,673.333 3651.17,673.667 3651.5,674C 3650.17,675 3648.83,676 3647.5,677C 3648.64,677.741 3648.64,678.575 3647.5,679.5C 3645.19,683.266 3641.86,684.933 3637.5,684.5C 3637.19,681.753 3637.52,679.086 3638.5,676.5C 3640.22,673.326 3641.56,669.993 3642.5,666.5C 3644.48,665.895 3644.81,664.895 3643.5,663.5C 3651.27,651.01 3658.94,638.01 3666.5,624.5C 3667.55,624.649 3668.55,624.483 3669.5,624C 3669.17,623.667 3668.83,623.333 3668.5,623C 3672.67,618.992 3677.01,615.159 3681.5,611.5C 3685.03,609.365 3688.69,609.032 3692.5,610.5C 3692.61,615.86 3692.28,621.193 3691.5,626.5C 3685.49,648.806 3678.65,670.806 3671,692.5C 3664.02,715.742 3657.69,739.075 3652,762.5C 3651.67,762.167 3651.33,761.833 3651,761.5C 3650.98,765.439 3649.81,768.939 3647.5,772C 3648.98,774.573 3648.48,776.74 3646,778.5C 3641.62,794.544 3639.12,810.877 3638.5,827.5C 3635.73,828.925 3632.9,830.258 3630,831.5C 3628.66,830.494 3627.33,829.494 3626,828.5C 3625.43,813.784 3626.1,799.117 3628,784.5C 3631.48,765.057 3635.48,745.723 3640,726.5C 3640.33,726.833 3640.67,727.167 3641,727.5C 3641.33,725.167 3641.67,722.833 3642,720.5C 3642.92,717.083 3644.42,713.916 3646.5,711C 3645.45,709.612 3645.28,708.112 3646,706.5C 3646.33,706.833 3646.67,707.167 3647,707.5C 3647.88,704.743 3648.88,702.076 3650,699.5C 3653.82,686.887 3657.32,674.221 3660.5,661.5 Z M 3660.5,661.5 C 3660.71,660.078 3661.21,658.745 3662,657.5C 3662.84,659.463 3662.34,660.796 3660.5,661.5 Z"/></g>
<g><path style="opacity:0.789" fill="#707070" d="M 3366.5,616.5 C 3369.56,616.928 3372.56,617.594 3375.5,618.5C 3375.5,622.5 3375.5,626.5 3375.5,630.5C 3374.32,630.281 3373.32,630.614 3372.5,631.5C 3373.48,633.098 3373.65,634.765 3373,636.5C 3363.43,666.546 3354.43,696.88 3346,727.5C 3345.67,727.167 3345.33,726.833 3345,726.5C 3338.45,747.085 3332.12,768.085 3326,789.5C 3323.39,800.334 3321.22,810.5 3319.5,820C 3322.43,825.258 3322.1,830.258 3318.5,835C 3316.96,835.29 3315.62,835.956 3314.5,837C 3311.69,837.312 3309.02,836.812 3306.5,835.5C 3305.62,832.248 3304.96,828.915 3304.5,825.5C 3305.77,811.449 3307.44,797.449 3309.5,783.5C 3310.29,782.758 3310.95,781.925 3311.5,781C 3309.99,777.543 3310.49,774.376 3313,771.5C 3320.39,735.171 3330.89,699.838 3344.5,665.5C 3343.64,664.707 3342.81,665.04 3342,666.5C 3336.58,675.58 3330.41,684.08 3323.5,692C 3322.21,692.49 3320.87,692.657 3319.5,692.5C 3319.18,689.102 3319.51,685.768 3320.5,682.5C 3323.41,675.015 3326.58,667.682 3330,660.5C 3337.42,649.451 3344.92,638.451 3352.5,627.5C 3356.93,623.333 3361.6,619.666 3366.5,616.5 Z"/></g>
<g><path style="opacity:0.792" fill="#707070" d="M 3436.5,627.5 C 3458.53,623.28 3473.7,631.613 3482,652.5C 3483.8,665.869 3481.63,678.535 3475.5,690.5C 3472.22,694.581 3469.55,698.581 3467.5,702.5C 3458.81,711.194 3450.14,719.86 3441.5,728.5C 3446.99,734.824 3451.99,741.49 3456.5,748.5C 3459.54,755.802 3462.88,762.968 3466.5,770C 3466.41,771.107 3466.08,772.107 3465.5,773C 3466.42,773.374 3467.25,773.874 3468,774.5C 3473.78,796.791 3468.95,815.458 3453.5,830.5C 3427.43,848.868 3402.43,847.535 3378.5,826.5C 3375.72,822.937 3374.05,818.937 3373.5,814.5C 3372.5,814.5 3371.5,814.5 3370.5,814.5C 3368.68,804.591 3368.18,794.591 3369,784.5C 3374.01,771.784 3380.17,760.118 3387.5,749.5C 3397.79,739.878 3408.12,730.212 3418.5,720.5C 3412.09,712.686 3406.42,704.353 3401.5,695.5C 3402.87,693.38 3402.2,692.38 3399.5,692.5C 3392.15,667.3 3399.49,647.8 3421.5,634C 3421.17,633.667 3420.83,633.333 3420.5,633C 3427.2,631.171 3432.53,629.338 3436.5,627.5 Z M 3434.5,643.5 C 3441.67,643.075 3448.67,643.742 3455.5,645.5C 3457.54,650.267 3459.04,655.267 3460,660.5C 3460.33,660.167 3460.67,659.833 3461,659.5C 3461.14,671.162 3456.64,681.662 3447.5,691C 3448.64,691.741 3448.64,692.575 3447.5,693.5C 3441.82,700.345 3435.99,707.012 3430,713.5C 3412.69,697.731 3408.52,679.065 3417.5,657.5C 3418.83,655.833 3420.17,654.167 3421.5,652.5C 3426.07,649.567 3430.41,646.567 3434.5,643.5 Z M 3429.5,738.5 C 3441.03,749.292 3449.36,762.292 3454.5,777.5C 3459.42,791.813 3456.75,804.48 3446.5,815.5C 3445.68,816.386 3444.68,816.719 3443.5,816.5C 3443.5,817.5 3443.5,818.5 3443.5,819.5C 3439.93,820.288 3436.93,822.122 3434.5,825C 3425.71,827.59 3416.71,828.09 3407.5,826.5C 3398.75,823.42 3393.09,817.42 3390.5,808.5C 3388.96,799.162 3390.13,790.162 3394,781.5C 3400.43,769.151 3408.43,758.484 3418,749.5C 3418.48,748.552 3418.65,747.552 3418.5,746.5C 3422.63,744.416 3426.3,741.749 3429.5,738.5 Z"/></g>
<g><path style="opacity:0.801" fill="#707070" d="M 3563.5,626.5 C 3568.84,626.334 3574.18,626.501 3579.5,627C 3593.6,629.564 3602.93,638.397 3607.5,653.5C 3608.66,659.807 3608.83,666.141 3608,672.5C 3604.19,683.61 3599.35,693.776 3593.5,703C 3584.65,711.346 3575.99,719.846 3567.5,728.5C 3578.18,741.276 3586.02,754.943 3591,769.5C 3591.33,769.167 3591.67,768.833 3592,768.5C 3593.9,776.858 3595.4,785.191 3596.5,793.5C 3594.05,819.672 3579.72,836.172 3553.5,843C 3535.53,844.945 3519.53,840.112 3505.5,828.5C 3495.65,814.325 3492.65,798.659 3496.5,781.5C 3500.34,769.635 3506.34,759.135 3514.5,750C 3523.61,740.059 3533.61,730.226 3544.5,720.5C 3528.51,703.889 3521.68,684.223 3524,661.5C 3528.6,649.563 3536.44,640.397 3547.5,634C 3547.17,633.667 3546.83,633.333 3546.5,633C 3552.64,631.465 3558.3,629.298 3563.5,626.5 Z M 3582.5,680.5 C 3580.75,682.539 3579.08,684.705 3577.5,687C 3577.83,687.333 3578.17,687.667 3578.5,688C 3577.55,688.483 3576.55,688.649 3575.5,688.5C 3571.17,698.351 3564.67,706.685 3556,713.5C 3543.79,701.019 3538.12,686.019 3539,668.5C 3546.53,647.535 3561.03,640.035 3582.5,646C 3582.17,646.333 3581.83,646.667 3581.5,647C 3590.39,658.027 3590.73,669.194 3582.5,680.5 Z M 3556.5,738.5 C 3562.19,743.202 3566.86,748.868 3570.5,755.5C 3573.83,762.167 3577.17,768.833 3580.5,775.5C 3583.02,783.671 3583.85,792.005 3583,800.5C 3581.98,799.294 3581.48,799.627 3581.5,801.5C 3581.61,802.442 3581.94,803.275 3582.5,804C 3580.26,806.016 3578.26,808.349 3576.5,811C 3576.83,811.333 3577.17,811.667 3577.5,812C 3572.61,816.721 3567.28,820.887 3561.5,824.5C 3535.98,833.591 3520.65,825.424 3515.5,800C 3516.76,788.349 3521.09,778.016 3528.5,769C 3536.03,757.619 3545.36,747.452 3556.5,738.5 Z"/></g>
<g><path style="opacity:0.929" fill="#6d7070" d="M 1375.5,1362.5 C 1370.76,1363.69 1366.1,1365.19 1361.5,1367C 1360,1368.87 1358,1369.87 1355.5,1370C 1355.83,1370.33 1356.17,1370.67 1356.5,1371C 1352.78,1371.8 1349.11,1372.8 1345.5,1374C 1345.83,1374.33 1346.17,1374.67 1346.5,1375C 1344.5,1375.33 1342.5,1375.67 1340.5,1376C 1340.83,1376.33 1341.17,1376.67 1341.5,1377C 1323.86,1383.54 1306.19,1389.71 1288.5,1395.5C 1283.34,1410.48 1278.51,1425.48 1274,1440.5C 1273.67,1440.17 1273.33,1439.83 1273,1439.5C 1253.57,1495.26 1233.73,1552.26 1213.5,1610.5C 1212.71,1613.32 1211.38,1615.82 1209.5,1618C 1210.55,1619.39 1210.72,1620.89 1210,1622.5C 1208.98,1621.37 1208.32,1621.7 1208,1623.5C 1206.47,1628.94 1204.64,1634.28 1202.5,1639.5C 1184.1,1694.66 1165.93,1750 1148,1805.5C 1138.16,1841.89 1128.66,1877.56 1119.5,1912.5C 1117.04,1918.71 1114.87,1925.05 1113,1931.5C 1104.54,1965.36 1096.2,1998.69 1088,2031.5C 1087.33,2032.17 1086.67,2032.83 1086,2033.5C 1077.39,2067.94 1069.06,2102.6 1061,2137.5C 1060.25,2138.13 1059.42,2138.63 1058.5,2139C 1059.59,2141.06 1059.76,2143.23 1059,2145.5C 1057.72,2148.87 1056.39,2152.2 1055,2155.5C 1041.77,2214.99 1028.77,2273.65 1016,2331.5C 1013.64,2348.64 1010.98,2365.64 1008,2382.5C 1006.35,2400.32 1004.85,2418.15 1003.5,2436C 1003.88,2446.1 1005.38,2455.93 1008,2465.5C 1009.39,2467.23 1011.06,2468.56 1013,2469.5C 1022.21,2464.46 1029.71,2457.46 1035.5,2448.5C 1048.48,2425.04 1060.14,2401.37 1070.5,2377.5C 1073.57,2371.24 1077.9,2367.74 1083.5,2367C 1083.17,2366.67 1082.83,2366.33 1082.5,2366C 1087.5,2365.33 1092.5,2365.33 1097.5,2366C 1097.17,2366.33 1096.83,2366.67 1096.5,2367C 1098.44,2367.3 1100.11,2368.14 1101.5,2369.5C 1102.83,2374.5 1102.83,2379.5 1101.5,2384.5C 1098.99,2390.84 1096.49,2397.18 1094,2403.5C 1093.67,2403.17 1093.33,2402.83 1093,2402.5C 1092.67,2404.5 1092.33,2406.5 1092,2408.5C 1089.89,2409.04 1089.39,2410.04 1090.5,2411.5C 1085.93,2418.98 1081.93,2427.32 1078.5,2436.5C 1073.62,2446.45 1067.62,2455.61 1060.5,2464C 1053.19,2476.32 1043.19,2486.66 1030.5,2495C 1030.83,2495.33 1031.17,2495.67 1031.5,2496C 1027.24,2498.48 1022.24,2500.98 1016.5,2503.5C 979.705,2514.67 956.205,2501.33 946,2463.5C 940.39,2433.51 938.39,2403.18 940,2372.5C 942.155,2351.91 944.155,2331.24 946,2310.5C 951.347,2278.72 956.681,2247.72 962,2217.5C 962.333,2217.83 962.667,2218.17 963,2218.5C 963.374,2217.58 963.874,2216.75 964.5,2216C 963.39,2213.26 963.223,2210.43 964,2207.5C 965.016,2208.63 965.683,2208.3 966,2206.5C 972.664,2170.17 980.664,2134.83 990,2100.5C 1000.29,2060.35 1011.13,2020.02 1022.5,1979.5C 1024.52,1978.56 1024.85,1977.06 1023.5,1975C 1025.52,1971.75 1027.02,1968.25 1028,1964.5C 1037.61,1928.38 1048.61,1892.71 1061,1857.5C 1067.91,1834.98 1074.91,1812.31 1082,1789.5C 1082.75,1788.87 1083.58,1788.37 1084.5,1788C 1082.92,1785.18 1083.58,1783.01 1086.5,1781.5C 1085.03,1779.06 1085.53,1777.06 1088,1775.5C 1096.41,1747.53 1104.75,1719.87 1113,1692.5C 1113.75,1691.87 1114.58,1691.37 1115.5,1691C 1113.92,1688.18 1114.58,1686.01 1117.5,1684.5C 1117.29,1683.91 1116.96,1683.41 1116.5,1683C 1146.07,1598.15 1175.73,1512.65 1205.5,1426.5C 1043.81,1484.43 878.477,1537.26 709.5,1585C 689.251,1591.07 668.251,1597.07 646.5,1603C 641.012,1625.68 634.512,1646.85 627,1666.5C 621.146,1688.71 614.479,1710.04 607,1730.5C 606.907,1733.01 606.074,1735.17 604.5,1737C 610.167,1737.67 615.833,1737.67 621.5,1737C 638.502,1735.69 655.502,1734.36 672.5,1733C 674.301,1732.68 674.634,1732.02 673.5,1731C 688.325,1730.82 702.325,1729.99 715.5,1728.5C 725.372,1728.25 734.372,1729.08 742.5,1731C 742.167,1731.33 741.833,1731.67 741.5,1732C 743.392,1732.97 745.392,1733.64 747.5,1734C 749.804,1736.49 752.471,1738.32 755.5,1739.5C 755.666,1744.51 755.499,1749.51 755,1754.5C 754.667,1754.17 754.333,1753.83 754,1753.5C 752.632,1754.99 752.465,1756.49 753.5,1758C 750.266,1760.41 747.933,1763.58 746.5,1767.5C 727.178,1787.49 706.178,1805.49 683.5,1821.5C 681.679,1822.73 680.679,1824.39 680.5,1826.5C 678.42,1827.04 676.42,1827.88 674.5,1829C 623.501,1873.32 574.668,1921.49 528,1973.5C 524.384,1986.01 520.384,1998.35 516,2010.5C 514.846,2014.45 514.013,2018.45 513.5,2022.5C 512.448,2022.35 511.448,2022.52 510.5,2023C 511.406,2024.7 511.739,2026.53 511.5,2028.5C 508.513,2028.42 507.847,2029.59 509.5,2032C 509.07,2033.43 508.236,2034.6 507,2035.5C 497.406,2065.93 487.906,2096.1 478.5,2126C 477.667,2126.83 476.833,2127.67 476,2128.5C 466.025,2160.47 455.358,2191.13 444,2220.5C 443.193,2222.58 442.026,2224.41 440.5,2226C 440.833,2226.33 441.167,2226.67 441.5,2227C 434.351,2246.77 427.185,2266.61 420,2286.5C 419.667,2286.17 419.333,2285.83 419,2285.5C 410.531,2306 402.531,2326.33 395,2346.5C 383.245,2369.37 372.411,2393.04 362.5,2417.5C 360.058,2417.12 359.391,2417.79 360.5,2419.5C 358.02,2420.42 357.353,2421.92 358.5,2424C 357.584,2424.37 356.75,2424.87 356,2425.5C 340.952,2455.76 321.452,2481.92 297.5,2504C 271.301,2516.72 255.968,2508.55 251.5,2479.5C 248.785,2451.74 250.619,2424.4 257,2397.5C 266.536,2362.89 277.536,2328.55 290,2294.5C 299.277,2274.51 308.444,2253.51 317.5,2231.5C 327.472,2212.24 337.639,2192.57 348,2172.5C 348.333,2172.83 348.667,2173.17 349,2173.5C 350.14,2170.9 350.973,2168.23 351.5,2165.5C 353.942,2165.65 354.609,2164.81 353.5,2163C 355.552,2162.07 357.052,2160.57 358,2158.5C 363.937,2146.79 370.771,2135.63 378.5,2125C 378.167,2124.67 377.833,2124.33 377.5,2124C 386.433,2111.93 394.766,2099.43 402.5,2086.5C 414.819,2070.53 426.652,2054.2 438,2037.5C 439,2032.83 440,2028.17 441,2023.5C 441.333,2023.83 441.667,2024.17 442,2024.5C 455.917,1978.77 470.584,1933.44 486,1888.5C 490.535,1873.56 494.869,1858.56 499,1843.5C 499.333,1843.83 499.667,1844.17 500,1844.5C 501.526,1835.61 504.026,1827.78 507.5,1821C 506.446,1819.61 506.28,1818.11 507,1816.5C 508.016,1817.63 508.683,1817.3 509,1815.5C 513.282,1801.85 517.782,1788.35 522.5,1775C 448.392,1781.47 374.392,1787.8 300.5,1794C 300.833,1794.33 301.167,1794.67 301.5,1795C 269.507,1796.8 237.507,1798.46 205.5,1800C 205.833,1800.33 206.167,1800.67 206.5,1801C 192.5,1801.33 178.5,1801.67 164.5,1802C 164.833,1802.33 165.167,1802.67 165.5,1803C 120.797,1804.11 76.1303,1803.45 31.5,1801C 31.8333,1800.67 32.1667,1800.33 32.5,1800C 24.1431,1799.46 15.8097,1797.79 7.5,1795C 7.83333,1794.67 8.16667,1794.33 8.5,1794C 5.01746,1792.01 2.01746,1789.51 -0.5,1786.5C -0.5,1783.83 -0.5,1781.17 -0.5,1778.5C 4.02756,1769.48 10.3609,1762.98 18.5,1759C 18.1667,1758.67 17.8333,1758.33 17.5,1758C 44.83,1744.3 72.83,1732.8 101.5,1723.5C 129.962,1714.68 158.296,1706.51 186.5,1699C 186.167,1698.67 185.833,1698.33 185.5,1698C 231.312,1687.38 273.645,1675.71 312.5,1663C 346.127,1655.2 378.46,1646.2 409.5,1636C 448.867,1627.17 486.867,1616.84 523.5,1605C 540.571,1600.99 558.237,1596.65 576.5,1592C 578.695,1589.93 580.195,1587.43 581,1584.5C 585.666,1569 589.999,1553.33 594,1537.5C 594.333,1537.83 594.667,1538.17 595,1538.5C 595.497,1535.85 595.664,1533.19 595.5,1530.5C 598.773,1530.53 599.44,1529.2 597.5,1526.5C 607.172,1498.23 615.672,1469.57 623,1440.5C 623.333,1440.83 623.667,1441.17 624,1441.5C 624.741,1434.57 626.575,1428.74 629.5,1424C 628.01,1421.8 628.343,1419.97 630.5,1418.5C 639.423,1387.74 647.923,1357.74 656,1328.5C 656.75,1327.87 657.584,1327.37 658.5,1327C 657.409,1324.94 657.242,1322.77 658,1320.5C 658.333,1320.83 658.667,1321.17 659,1321.5C 690.715,1214.59 720.882,1107.92 749.5,1001.5C 751.711,1000.81 752.045,999.641 750.5,998C 759.555,969.176 767.389,940.01 774,910.5C 774.333,910.833 774.667,911.167 775,911.5C 776.159,906.202 776.993,900.869 777.5,895.5C 780.575,895.749 781.242,894.415 779.5,891.5C 779.766,889.34 780.766,887.674 782.5,886.5C 781.211,883.849 781.711,881.516 784,879.5C 786.767,866.466 790.267,853.8 794.5,841.5C 799.541,838.65 804.874,836.316 810.5,834.5C 830.353,831.67 848.353,835.003 864.5,844.5C 872.178,852.843 879.844,861.177 887.5,869.5C 896.366,882.696 904.532,895.696 912,908.5C 916.612,919.671 920.612,931.005 924,942.5C 926.358,951.952 927.024,961.619 926,971.5C 921.881,979.135 915.381,983.468 906.5,984.5C 901.845,983.616 897.512,981.949 893.5,979.5C 890.811,958.095 884.477,937.761 874.5,918.5C 873.509,916.677 872.176,915.177 870.5,914C 870.833,913.667 871.167,913.333 871.5,913C 870.5,912.167 869.5,911.333 868.5,910.5C 868.709,909.914 869.043,909.414 869.5,909C 867.459,907.758 866.293,905.925 866,903.5C 863.316,899.501 860.15,895.834 856.5,892.5C 854.926,891.369 853.259,891.202 851.5,892C 852.022,892.561 852.355,893.228 852.5,894C 850.301,899.63 848.801,905.463 848,911.5C 847.667,911.167 847.333,910.833 847,910.5C 847.107,914.489 845.941,917.989 843.5,921C 844.99,923.2 844.657,925.034 842.5,926.5C 833.212,962.107 823.712,996.44 814,1029.5C 803.043,1067.37 793.21,1104.7 784.5,1141.5C 783.5,1141.5 782.5,1141.5 781.5,1141.5C 775.606,1165.9 769.44,1190.23 763,1214.5C 762.667,1214.17 762.333,1213.83 762,1213.5C 761.284,1218.89 760.284,1224.22 759,1229.5C 758.667,1229.17 758.333,1228.83 758,1228.5C 757,1233.83 756,1239.17 755,1244.5C 754.667,1244.17 754.333,1243.83 754,1243.5C 744.469,1276.76 735.136,1310.09 726,1343.5C 725.25,1344.13 724.416,1344.63 723.5,1345C 724.591,1347.06 724.758,1349.23 724,1351.5C 723.667,1351.17 723.333,1350.83 723,1350.5C 713.507,1382.97 704.007,1415.97 694.5,1449.5C 683.614,1483.65 673.281,1518.31 663.5,1553.5C 661.633,1554.8 661.3,1556.3 662.5,1558C 661.66,1559.17 660.827,1560.34 660,1561.5C 659.693,1565.05 658.86,1568.38 657.5,1571.5C 784.962,1535.08 912.296,1496.25 1039.5,1455C 1039.17,1454.67 1038.83,1454.33 1038.5,1454C 1067.08,1445.81 1095.75,1436.48 1124.5,1426C 1149.36,1417.02 1176.03,1407.68 1204.5,1398C 1206.34,1396.05 1208.67,1395.05 1211.5,1395C 1211.17,1394.67 1210.83,1394.33 1210.5,1394C 1213.89,1393.26 1217.22,1392.42 1220.5,1391.5C 1224.22,1377.69 1228.55,1364.02 1233.5,1350.5C 1244.24,1324.19 1253.74,1298.19 1262,1272.5C 1274.71,1241.38 1286.38,1209.71 1297,1177.5C 1297.75,1176.87 1298.58,1176.37 1299.5,1176C 1298.98,1175.44 1298.64,1174.77 1298.5,1174C 1308.99,1148.16 1318.83,1121.99 1328,1095.5C 1328.33,1095.83 1328.67,1096.17 1329,1096.5C 1332.99,1085.77 1337.16,1074.77 1341.5,1063.5C 1347.1,1049 1352.1,1034.33 1356.5,1019.5C 1359.28,1019.91 1359.94,1019.08 1358.5,1017C 1359.7,1015.63 1360.7,1014.13 1361.5,1012.5C 1361.29,1011.91 1360.96,1011.41 1360.5,1011C 1362.62,1009.27 1364.12,1007.1 1365,1004.5C 1374.69,975.479 1385.69,947.145 1398,919.5C 1404.42,901.74 1410.92,884.074 1417.5,866.5C 1418.47,864.604 1418.8,862.604 1418.5,860.5C 1421.2,860.62 1421.87,859.62 1420.5,857.5C 1423.6,851.927 1426.6,846.261 1429.5,840.5C 1433.29,835.309 1438.29,831.976 1444.5,830.5C 1463.45,826.433 1478.29,831.766 1489,846.5C 1491.43,852.335 1491.93,858.335 1490.5,864.5C 1481.01,886.938 1472.01,909.605 1463.5,932.5C 1461.27,940.305 1458.93,947.972 1456.5,955.5C 1453.8,955.38 1453.13,956.38 1454.5,958.5C 1452.42,960.852 1450.92,963.518 1450,966.5C 1439.31,996.188 1428.14,1024.86 1416.5,1052.5C 1409.98,1070.05 1403.81,1087.05 1398,1103.5C 1385.65,1131.88 1374.65,1160.88 1365,1190.5C 1364.25,1191.13 1363.42,1191.63 1362.5,1192C 1363.02,1192.56 1363.36,1193.23 1363.5,1194C 1360.28,1199.99 1357.45,1206.15 1355,1212.5C 1347.84,1232.82 1340.67,1253.15 1333.5,1273.5C 1331.29,1274.19 1330.96,1275.36 1332.5,1277C 1328.61,1285 1325.11,1293.17 1322,1301.5C 1316.35,1318.1 1310.69,1334.77 1305,1351.5C 1304.67,1351.17 1304.33,1350.83 1304,1350.5C 1303.85,1353.11 1303.02,1355.44 1301.5,1357.5C 1302.33,1357.83 1303.17,1358.17 1304,1358.5C 1315.15,1354.27 1326.32,1350.1 1337.5,1346C 1361.77,1336.33 1385.43,1326.33 1408.5,1316C 1412.71,1314.6 1417.04,1313.76 1421.5,1313.5C 1429.38,1312.54 1433.38,1316.04 1433.5,1324C 1431.7,1332.01 1429.53,1339.17 1427,1345.5C 1426.25,1346.13 1425.42,1346.63 1424.5,1347C 1425.45,1347.72 1425.62,1348.55 1425,1349.5C 1417.35,1358.56 1410.51,1368.23 1404.5,1378.5C 1399.8,1382.87 1395.47,1387.53 1391.5,1392.5C 1384.47,1401.36 1377.64,1410.36 1371,1419.5C 1366.39,1425.6 1360.22,1428.27 1352.5,1427.5C 1340.5,1427.18 1336,1421.18 1339,1409.5C 1346.01,1401.98 1351.84,1394.81 1356.5,1388C 1362.72,1382.11 1368.22,1375.61 1373,1368.5C 1374.12,1366.59 1374.96,1364.59 1375.5,1362.5 Z M 1375.5,1362.5 C 1375.84,1360.77 1376.84,1360.27 1378.5,1361C 1377.76,1362.04 1376.76,1362.54 1375.5,1362.5 Z M 562.5,1627.5 C 564.833,1627.5 567.167,1627.5 569.5,1627.5C 559.182,1661.08 549.182,1694.75 539.5,1728.5C 537.512,1729.29 537.179,1730.46 538.5,1732C 535.73,1736.81 534.063,1741.98 533.5,1747.5C 472.617,1752.47 413.283,1757.3 355.5,1762C 354.672,1762.91 353.672,1763.58 352.5,1764C 287.067,1768.36 221.4,1772.86 155.5,1777.5C 129.837,1778.6 104.17,1779.6 78.5,1780.5C 69.1667,1780.17 59.8333,1779.83 50.5,1779.5C 45.3557,1778.95 40.3557,1778.12 35.5,1777C 39.9299,1774.76 45.2632,1773.09 51.5,1772C 86.1682,1759.83 122.835,1748.83 161.5,1739C 202.697,1725.85 243.697,1714.02 284.5,1703.5C 319.699,1692.86 355.699,1683.36 392.5,1675C 392.167,1674.67 391.833,1674.33 391.5,1674C 434.144,1662.43 475.81,1651.6 516.5,1641.5C 516.709,1640.91 517.043,1640.41 517.5,1640C 527.343,1637.19 537.343,1634.86 547.5,1633C 552.681,1631.23 557.681,1629.4 562.5,1627.5 Z M 698.5,1759.5 C 704.206,1759.17 709.872,1759.5 715.5,1760.5C 710.516,1765.15 705.516,1769.82 700.5,1774.5C 649.829,1814.29 601.162,1858.29 554.5,1906.5C 554.167,1906.33 553.833,1906.17 553.5,1906C 559.619,1889.14 564.619,1871.98 568.5,1854.5C 569.5,1854.5 570.5,1854.5 571.5,1854.5C 570.419,1851.67 570.585,1849 572,1846.5C 572.333,1846.83 572.667,1847.17 573,1847.5C 574,1843.17 575,1838.83 576,1834.5C 583.636,1814.05 590.136,1792.72 595.5,1770.5C 609.836,1769.83 624.169,1768.99 638.5,1768C 638.167,1767.67 637.833,1767.33 637.5,1767C 650.83,1765.82 664.163,1764.65 677.5,1763.5C 677.709,1762.91 678.043,1762.41 678.5,1762C 684.5,1761.67 690.5,1761.33 696.5,1761C 697.416,1760.72 698.082,1760.22 698.5,1759.5 Z M 399.5,2154.5 C 395.356,2167.71 391.19,2181.04 387,2194.5C 386.355,2195.65 385.522,2196.65 384.5,2197.5C 385.661,2199.22 385.495,2200.89 384,2202.5C 383.667,2202.17 383.333,2201.83 383,2201.5C 374.733,2226.63 366.067,2251.63 357,2276.5C 356.506,2278.13 356.34,2279.8 356.5,2281.5C 355.5,2281.5 354.5,2281.5 353.5,2281.5C 352.318,2287.55 350.818,2293.55 349,2299.5C 348.667,2299.17 348.333,2298.83 348,2298.5C 342.627,2313.62 337.627,2328.95 333,2344.5C 320.6,2375.19 308.266,2407.19 296,2440.5C 295.355,2441.65 294.522,2442.65 293.5,2443.5C 294.872,2445.62 294.205,2446.62 291.5,2446.5C 291.33,2447.82 291.663,2448.99 292.5,2450C 291.584,2450.37 290.75,2450.87 290,2451.5C 288.036,2456.28 286.036,2460.61 284,2464.5C 285.218,2440.85 288.718,2417.52 294.5,2394.5C 296.72,2392.34 297.053,2389.84 295.5,2387C 296.416,2386.63 297.25,2386.13 298,2385.5C 305.206,2357.02 314.539,2328.35 326,2299.5C 326.333,2299.83 326.667,2300.17 327,2300.5C 327.72,2298.89 327.554,2297.39 326.5,2296C 327.416,2295.63 328.25,2295.13 329,2294.5C 334.149,2280.44 339.816,2265.77 346,2250.5C 358.292,2225.28 371.792,2200.28 386.5,2175.5C 390.887,2168.47 395.22,2161.47 399.5,2154.5 Z"/></g>
<g><path style="opacity:0.925" fill="#6d7070" d="M 2362.5,1491.5 C 2391.6,1439.69 2422.6,1388.69 2455.5,1338.5C 2460.91,1330.17 2466.74,1321.5 2473,1312.5C 2475.13,1309.4 2476.63,1306.07 2477.5,1302.5C 2478.55,1302.65 2479.55,1302.48 2480.5,1302C 2480.17,1301.67 2479.83,1301.33 2479.5,1301C 2481.11,1299.95 2481.77,1298.45 2481.5,1296.5C 2482.55,1296.65 2483.55,1296.48 2484.5,1296C 2484.17,1295.67 2483.83,1295.33 2483.5,1295C 2490.48,1287.29 2496.14,1279.12 2500.5,1270.5C 2506.65,1263.04 2512.32,1255.38 2517.5,1247.5C 2559.19,1186.77 2606.19,1130.11 2658.5,1077.5C 2667.18,1070.99 2674.85,1064.15 2681.5,1057C 2693.36,1048.87 2705.7,1041.53 2718.5,1035C 2725.66,1032.73 2732.99,1032.06 2740.5,1033C 2744.4,1035.06 2748.4,1036.9 2752.5,1038.5C 2755.59,1044.15 2758.09,1050.15 2760,1056.5C 2761.86,1082.86 2758.53,1108.53 2750,1133.5C 2745.45,1146.21 2740.78,1158.88 2736,1171.5C 2735.67,1171.17 2735.33,1170.83 2735,1170.5C 2733.51,1172.11 2733.34,1173.78 2734.5,1175.5C 2733.68,1176.39 2732.68,1176.72 2731.5,1176.5C 2730.96,1179.55 2730.13,1182.55 2729,1185.5C 2720.01,1205.49 2710.01,1224.82 2699,1243.5C 2690.94,1258.3 2683.44,1273.3 2676.5,1288.5C 2674.06,1288.35 2673.39,1289.19 2674.5,1291C 2671.91,1293 2669.91,1295.5 2668.5,1298.5C 2660.8,1314 2652.14,1328.83 2642.5,1343C 2625,1374 2606.34,1403.67 2586.5,1432C 2522.97,1528.79 2453.3,1620.46 2377.5,1707C 2377.83,1707.33 2378.17,1707.67 2378.5,1708C 2377.5,1708.33 2376.5,1708.67 2375.5,1709C 2359.83,1727.55 2343.17,1746.05 2325.5,1764.5C 2311.09,1778.61 2296.75,1791.94 2282.5,1804.5C 2276.88,1818.76 2271.05,1833.76 2265,1849.5C 2257.9,1872.37 2251.9,1894.04 2247,1914.5C 2245.57,1916.99 2245.4,1919.66 2246.5,1922.5C 2246.71,1925.23 2245.87,1927.56 2244,1929.5C 2243.21,1938.67 2242.37,1947.84 2241.5,1957C 2241.97,1964.54 2242.81,1972.04 2244,1979.5C 2246.48,1980.62 2246.98,1982.29 2245.5,1984.5C 2246.61,1987.92 2248.28,1990.26 2250.5,1991.5C 2250.29,1992.09 2249.96,1992.59 2249.5,1993C 2253.55,1998.48 2258.88,2002.15 2265.5,2004C 2265.17,2004.33 2264.83,2004.67 2264.5,2005C 2270.1,2005.24 2275.44,2006.4 2280.5,2008.5C 2292.82,2006.07 2305.15,2003.57 2317.5,2001C 2317.17,2000.67 2316.83,2000.33 2316.5,2000C 2322.09,1998.35 2328.43,1996.69 2335.5,1995C 2335.17,1994.67 2334.83,1994.33 2334.5,1994C 2349.48,1988.84 2364.14,1983.34 2378.5,1977.5C 2378.5,1976.5 2378.5,1975.5 2378.5,1974.5C 2380.2,1974.66 2381.87,1974.49 2383.5,1974C 2450.66,1938.98 2517,1897.65 2582.5,1850C 2582.17,1849.67 2581.83,1849.33 2581.5,1849C 2593.94,1841.38 2605.94,1833.21 2617.5,1824.5C 2642.68,1780.83 2676.35,1746.33 2718.5,1721C 2732.17,1714.89 2746.17,1710.22 2760.5,1707C 2781.26,1704.06 2799.92,1708.9 2816.5,1721.5C 2822.34,1727.63 2827.17,1734.96 2831,1743.5C 2842.88,1726.79 2856.71,1711.79 2872.5,1698.5C 2878.84,1693.41 2886.01,1690.41 2894,1689.5C 2898.1,1689.56 2901.94,1690.56 2905.5,1692.5C 2906.64,1693.43 2906.64,1694.26 2905.5,1695C 2907.26,1696.01 2908.43,1697.51 2909,1699.5C 2909.21,1702.62 2909.87,1705.62 2911,1708.5C 2911.67,1712.5 2911.67,1716.5 2911,1720.5C 2909.93,1729.86 2908.6,1739.2 2907,1748.5C 2900.31,1770.88 2892.31,1793.21 2883,1815.5C 2872.8,1846.82 2862.47,1876.49 2852,1904.5C 2846.86,1923.29 2843.36,1942.29 2841.5,1961.5C 2841.16,1969.27 2842.66,1976.61 2846,1983.5C 2850.13,1988.13 2855.3,1990.13 2861.5,1989.5C 2876.89,1987.64 2891.56,1983.48 2905.5,1977C 2921.29,1968.6 2936.63,1959.44 2951.5,1949.5C 3005.65,1908.2 3056.32,1863.53 3103.5,1815.5C 3119.77,1772.23 3136.77,1728.9 3154.5,1685.5C 3166.39,1660.99 3177.23,1635.99 3187,1610.5C 3187.33,1610.83 3187.67,1611.17 3188,1611.5C 3197.39,1590.8 3206.72,1570.14 3216,1549.5C 3216.33,1549.83 3216.67,1550.17 3217,1550.5C 3221.15,1540.72 3226.15,1531.05 3232,1521.5C 3236.93,1509.92 3242.1,1499.92 3247.5,1491.5C 3262.92,1462.26 3278.92,1433.93 3295.5,1406.5C 3299.05,1400.36 3302.05,1394.02 3304.5,1387.5C 3305.55,1387.65 3306.55,1387.48 3307.5,1387C 3306.55,1386.28 3306.38,1385.45 3307,1384.5C 3308.31,1383.69 3309.48,1382.69 3310.5,1381.5C 3324.74,1355.63 3340.41,1330.97 3357.5,1307.5C 3359.26,1303.78 3360.92,1300.12 3362.5,1296.5C 3363.55,1296.65 3364.55,1296.48 3365.5,1296C 3365.17,1295.67 3364.83,1295.33 3364.5,1295C 3370.13,1287.7 3375.79,1280.36 3381.5,1273C 3381.17,1272.67 3380.83,1272.33 3380.5,1272C 3412.35,1227.56 3445.68,1184.9 3480.5,1144C 3488.39,1136.86 3496.06,1129.53 3503.5,1122C 3503.17,1121.67 3502.83,1121.33 3502.5,1121C 3517.8,1108.02 3533.14,1095.02 3548.5,1082C 3560.3,1074.13 3572.3,1066.79 3584.5,1060C 3584.17,1059.67 3583.83,1059.33 3583.5,1059C 3587.79,1057.26 3592.79,1055.43 3598.5,1053.5C 3611.08,1049.09 3623.41,1049.59 3635.5,1055C 3635.17,1055.33 3634.83,1055.67 3634.5,1056C 3637.27,1057.1 3639.44,1058.94 3641,1061.5C 3642.26,1064.79 3643.43,1068.12 3644.5,1071.5C 3647.23,1093.35 3645.4,1114.68 3639,1135.5C 3625.98,1172.39 3609.48,1207.89 3589.5,1242C 3590.83,1243.84 3590.67,1244.34 3589,1243.5C 3587.89,1244.76 3587.72,1245.93 3588.5,1247C 3583.47,1254.22 3578.8,1261.72 3574.5,1269.5C 3570,1278.5 3565.5,1287.5 3561,1296.5C 3560.67,1296.17 3560.33,1295.83 3560,1295.5C 3547.65,1317.72 3534.32,1339.72 3520,1361.5C 3481.17,1427.71 3439.01,1491.37 3393.5,1552.5C 3364.38,1594.22 3332.71,1634.72 3298.5,1674C 3299.3,1676.23 3298.3,1677.56 3295.5,1678C 3295.83,1678.33 3296.17,1678.67 3296.5,1679C 3288.82,1687.02 3281.15,1695.02 3273.5,1703C 3273.83,1703.33 3274.17,1703.67 3274.5,1704C 3265.95,1712.49 3256.78,1721.99 3247,1732.5C 3246.52,1733.45 3246.35,1734.45 3246.5,1735.5C 3245.45,1735.35 3244.45,1735.52 3243.5,1736C 3243.83,1736.33 3244.17,1736.67 3244.5,1737C 3243.5,1737.33 3242.5,1737.67 3241.5,1738C 3223.41,1757.68 3203.58,1776.18 3182,1793.5C 3174.95,1813.17 3168.45,1832.17 3162.5,1850.5C 3159.51,1850.42 3158.85,1851.59 3160.5,1854C 3157.84,1856.84 3156.84,1860.01 3157.5,1863.5C 3185.61,1826.65 3217.28,1791.65 3252.5,1758.5C 3264.08,1748.74 3275.75,1739.24 3287.5,1730C 3287.17,1729.67 3286.83,1729.33 3286.5,1729C 3298.34,1721.77 3310.34,1713.77 3322.5,1705C 3333.68,1698.08 3346.01,1691.91 3359.5,1686.5C 3377.67,1679.46 3396.34,1676.79 3415.5,1678.5C 3429.77,1682.43 3440.1,1691.1 3446.5,1704.5C 3450.24,1714.61 3452.57,1724.94 3453.5,1735.5C 3451.11,1761.01 3445.45,1785.01 3436.5,1807.5C 3429.32,1823.52 3421.32,1839.18 3412.5,1854.5C 3444.61,1843.55 3478.28,1833.05 3513.5,1823C 3513.17,1822.67 3512.83,1822.33 3512.5,1822C 3537.16,1816.17 3563.83,1809.5 3592.5,1802C 3608.21,1797.91 3614.71,1803.74 3612,1819.5C 3610.55,1821.76 3609.38,1824.09 3608.5,1826.5C 3606.09,1827.2 3603.76,1828.2 3601.5,1829.5C 3560.6,1838.1 3521.27,1848.26 3483.5,1860C 3459.56,1867.88 3435.23,1876.21 3410.5,1885C 3410.83,1885.33 3411.17,1885.67 3411.5,1886C 3401.41,1889.08 3392.07,1892.25 3383.5,1895.5C 3375.89,1905.12 3367.89,1914.45 3359.5,1923.5C 3358.57,1924.69 3358.24,1926.02 3358.5,1927.5C 3348.34,1935.99 3338.67,1945.33 3329.5,1955.5C 3316.27,1965.73 3304.27,1975.56 3293.5,1985C 3280.54,1992.64 3267.54,1999.97 3254.5,2007C 3254.83,2007.33 3255.17,2007.67 3255.5,2008C 3243.92,2012.96 3232.25,2017.63 3220.5,2022C 3209.45,2025.18 3198.45,2027.85 3187.5,2030C 3180.83,2030.67 3174.17,2030.67 3167.5,2030C 3155.99,2026.9 3151.49,2019.4 3154,2007.5C 3154.33,2007.83 3154.67,2008.17 3155,2008.5C 3155.33,2006.5 3155.67,2004.5 3156,2002.5C 3156.75,2001.87 3157.58,2001.37 3158.5,2001C 3164.4,1990.41 3172.73,1981.41 3183.5,1974C 3195.03,1963.62 3208.03,1954.29 3222.5,1946C 3223.83,1945.33 3223.83,1944.67 3222.5,1944C 3243.53,1932.41 3264.53,1921.07 3285.5,1910C 3285.17,1909.67 3284.83,1909.33 3284.5,1909C 3291.47,1905.85 3298.47,1902.68 3305.5,1899.5C 3309.25,1895.93 3312.41,1891.93 3315,1887.5C 3324.32,1872.88 3333.15,1857.88 3341.5,1842.5C 3353.47,1818.57 3363.47,1793.9 3371.5,1768.5C 3372.09,1768.29 3372.59,1767.96 3373,1767.5C 3376.26,1756.57 3378.43,1745.4 3379.5,1734C 3380.85,1727.06 3378.85,1721.39 3373.5,1717C 3363.84,1717.22 3354.84,1719.88 3346.5,1725C 3330.14,1735.9 3313.14,1748.07 3295.5,1761.5C 3294.61,1762.32 3294.28,1763.32 3294.5,1764.5C 3293.45,1764.35 3292.45,1764.52 3291.5,1765C 3260.15,1793.04 3230.49,1824.04 3202.5,1858C 3202.83,1858.33 3203.17,1858.67 3203.5,1859C 3194.85,1867.04 3186.85,1876.37 3179.5,1887C 3174.61,1894.97 3168.61,1902.63 3161.5,1910C 3161.83,1910.33 3162.17,1910.67 3162.5,1911C 3159.84,1912.99 3157.51,1915.32 3155.5,1918C 3155.83,1918.33 3156.17,1918.67 3156.5,1919C 3148.78,1929.39 3141.45,1940.06 3134.5,1951C 3134.83,1951.33 3135.17,1951.67 3135.5,1952C 3133.83,1953.67 3132.17,1955.33 3130.5,1957C 3131.06,1957.72 3131.39,1958.56 3131.5,1959.5C 3121.28,1990.15 3112.28,2020.15 3104.5,2049.5C 3103.45,2049.35 3102.45,2049.52 3101.5,2050C 3102.83,2051.84 3102.67,2052.34 3101,2051.5C 3098.36,2054.65 3095.19,2057.15 3091.5,2059C 3077.21,2061.83 3063.54,2059.66 3050.5,2052.5C 3043.84,2049.07 3038.34,2044.41 3034,2038.5C 3033.33,2035.5 3033.33,2032.5 3034,2029.5C 3034.33,2029.83 3034.67,2030.17 3035,2030.5C 3043.63,1997.28 3052.96,1963.28 3063,1928.5C 3063.33,1928.83 3063.67,1929.17 3064,1929.5C 3064.33,1927.17 3064.67,1924.83 3065,1922.5C 3065.33,1922.83 3065.67,1923.17 3066,1923.5C 3070.82,1908.33 3075.98,1892.99 3081.5,1877.5C 3081.17,1876.83 3080.83,1876.17 3080.5,1875.5C 3064.2,1891.31 3047.2,1906.15 3029.5,1920C 3019.44,1929.32 3008.44,1938.32 2996.5,1947C 2996.83,1947.33 2997.17,1947.67 2997.5,1948C 2982.57,1958.27 2968.24,1969.27 2954.5,1981C 2938.1,1991.38 2922.43,2001.71 2907.5,2012C 2894.3,2018.23 2880.3,2024.23 2865.5,2030C 2830.91,2042.22 2809.58,2030.72 2801.5,1995.5C 2800.33,1976.84 2800.17,1958.18 2801,1939.5C 2807.91,1892.78 2818.08,1846.78 2831.5,1801.5C 2830.45,1801.35 2829.45,1801.52 2828.5,1802C 2828.83,1802.33 2829.17,1802.67 2829.5,1803C 2827.73,1804.7 2826.06,1806.53 2824.5,1808.5C 2824.71,1809.09 2825.04,1809.59 2825.5,1810C 2823.7,1810.64 2822.36,1811.8 2821.5,1813.5C 2805.36,1840.9 2787.02,1866.73 2766.5,1891C 2766.83,1891.33 2767.17,1891.67 2767.5,1892C 2764.71,1895.29 2761.71,1898.46 2758.5,1901.5C 2748.95,1915.55 2738.12,1928.55 2726,1940.5C 2719.24,1949.71 2711.41,1958.04 2702.5,1965.5C 2689.92,1982.59 2674.92,1997.09 2657.5,2009C 2646.04,2018.31 2633.37,2026.64 2619.5,2034C 2615.66,2035.59 2611.66,2036.59 2607.5,2037C 2607.04,2037.41 2606.71,2037.91 2606.5,2038.5C 2601.17,2039.83 2595.83,2039.83 2590.5,2038.5C 2577.34,2032.6 2569.68,2022.93 2567.5,2009.5C 2563.86,1964.28 2570.86,1921.78 2588.5,1882C 2554.59,1905.83 2520.26,1928.17 2485.5,1949C 2451.62,1970.46 2415.95,1989.79 2378.5,2007C 2346.93,2021.91 2312.93,2033.07 2276.5,2040.5C 2252.15,2044.11 2229.15,2039.11 2207.5,2025.5C 2200.79,2020.48 2195.46,2014.82 2191.5,2008.5C 2188.03,2001.23 2184.86,1993.9 2182,1986.5C 2181.24,1984.23 2181.41,1982.06 2182.5,1980C 2181.58,1979.63 2180.75,1979.13 2180,1978.5C 2179.17,1968 2178.33,1957.5 2177.5,1947C 2178.68,1930.36 2180.18,1913.86 2182,1897.5C 2183.02,1898.63 2183.68,1898.3 2184,1896.5C 2186.56,1881.27 2189.89,1866.27 2194,1851.5C 2131.96,1899.55 2066.8,1942.38 1998.5,1980C 1980.1,1990.53 1960.76,2000.2 1940.5,2009C 1940.83,2009.33 1941.17,2009.67 1941.5,2010C 1921.35,2018.2 1901.02,2025.53 1880.5,2032C 1870.4,2033.68 1860.4,2035.85 1850.5,2038.5C 1839.52,2039.67 1828.52,2039.83 1817.5,2039C 1817.83,2038.67 1818.17,2038.33 1818.5,2038C 1798.77,2035.3 1782.1,2026.46 1768.5,2011.5C 1767.36,2010.57 1767.36,2009.74 1768.5,2009C 1767.23,2008.1 1766.23,2006.93 1765.5,2005.5C 1761.88,1998.64 1758.71,1991.64 1756,1984.5C 1755.24,1982.23 1755.41,1980.06 1756.5,1978C 1755.97,1977.31 1755.31,1976.81 1754.5,1976.5C 1753.33,1953.51 1753.17,1930.51 1754,1907.5C 1754.33,1907.83 1754.67,1908.17 1755,1908.5C 1755.23,1904.11 1755.73,1899.78 1756.5,1895.5C 1756.17,1895.17 1755.83,1894.83 1755.5,1894.5C 1731.15,1916.51 1706.81,1936.68 1682.5,1955C 1658.67,1975.33 1633.34,1993.33 1606.5,2009C 1606.83,2009.33 1607.17,2009.67 1607.5,2010C 1590.61,2019.03 1571.94,2027.03 1551.5,2034C 1523.13,2041.03 1504.63,2030.53 1496,2002.5C 1493.6,1984.58 1492.94,1966.58 1494,1948.5C 1497.61,1917.93 1503.11,1887.6 1510.5,1857.5C 1511.31,1857.19 1511.97,1856.69 1512.5,1856C 1510.99,1852.54 1511.49,1849.38 1514,1846.5C 1518.12,1830.8 1522.29,1815.14 1526.5,1799.5C 1524.62,1799.39 1524.29,1799.89 1525.5,1801C 1522.26,1806.02 1518.92,1810.85 1515.5,1815.5C 1475.69,1878.49 1428.69,1937.15 1374.5,1991.5C 1368.64,1996.52 1362.64,2001.36 1356.5,2006C 1355.17,2006.67 1355.17,2007.33 1356.5,2008C 1340.87,2019.97 1324.21,2030.14 1306.5,2038.5C 1292.02,2044.58 1279.35,2041.25 1268.5,2028.5C 1268.18,2026.95 1267.18,2026.29 1265.5,2026.5C 1265.33,2025.18 1265.66,2024.01 1266.5,2023C 1265.55,2022.52 1264.55,2022.35 1263.5,2022.5C 1262.72,2017.48 1261.72,2012.48 1260.5,2007.5C 1259.09,1985.04 1260.25,1962.71 1264,1940.5C 1264.33,1940.83 1264.67,1941.17 1265,1941.5C 1265.18,1934.28 1266.18,1927.95 1268,1922.5C 1269.02,1923.63 1269.68,1923.3 1270,1921.5C 1272.65,1908.88 1276.32,1896.55 1281,1884.5C 1285.92,1873.65 1290.59,1862.65 1295,1851.5C 1295.75,1850.87 1296.58,1850.37 1297.5,1850C 1314.4,1817.04 1336.4,1786.54 1363.5,1758.5C 1373.72,1749.67 1385.38,1740.84 1398.5,1732C 1398.17,1731.67 1397.83,1731.33 1397.5,1731C 1411.06,1723.29 1426.39,1716.62 1443.5,1711C 1465.57,1705.21 1486.23,1708.04 1505.5,1719.5C 1510.99,1724.31 1515.66,1729.64 1519.5,1735.5C 1522.08,1738.33 1523.92,1741.66 1525,1745.5C 1538.34,1725.18 1554.17,1709.01 1572.5,1697C 1572.17,1696.67 1571.83,1696.33 1571.5,1696C 1576.97,1693.34 1582.63,1691.18 1588.5,1689.5C 1594.15,1690.39 1598.48,1693.22 1601.5,1698C 1601.17,1698.33 1600.83,1698.67 1600.5,1699C 1602.03,1700.95 1603.2,1703.12 1604,1705.5C 1604.75,1721.69 1603.25,1737.69 1599.5,1753.5C 1593.3,1773.26 1586.8,1792.93 1580,1812.5C 1579.67,1812.17 1579.33,1811.83 1579,1811.5C 1578.67,1813.83 1578.33,1816.17 1578,1818.5C 1577.67,1818.17 1577.33,1817.83 1577,1817.5C 1575.98,1819.27 1575.81,1820.94 1576.5,1822.5C 1575.68,1823.39 1574.68,1823.72 1573.5,1823.5C 1573.81,1825.92 1573.47,1828.26 1572.5,1830.5C 1559.42,1864.38 1548.25,1898.72 1539,1933.5C 1537.52,1943.88 1536.02,1954.21 1534.5,1964.5C 1535.33,1972.15 1537.33,1979.48 1540.5,1986.5C 1544.64,1989.42 1549.31,1991.09 1554.5,1991.5C 1566.47,1990.06 1578.14,1987.22 1589.5,1983C 1611.11,1972.69 1631.77,1960.52 1651.5,1946.5C 1652.39,1945.68 1652.72,1944.68 1652.5,1943.5C 1655.59,1942.28 1658.59,1940.78 1661.5,1939C 1668.63,1932.59 1676.63,1926.43 1685.5,1920.5C 1701.29,1906.71 1716.96,1892.87 1732.5,1879C 1745,1867.67 1757.33,1856.17 1769.5,1844.5C 1775.11,1822.93 1781.78,1803.59 1789.5,1786.5C 1799.4,1759.18 1810.23,1733.18 1822,1708.5C 1828.73,1692.05 1835.73,1675.71 1843,1659.5C 1843.75,1658.87 1844.58,1658.37 1845.5,1658C 1844.66,1656.99 1844.33,1655.82 1844.5,1654.5C 1846.94,1654.65 1847.61,1653.81 1846.5,1652C 1857.84,1631.16 1868.5,1609.99 1878.5,1588.5C 1887.59,1571.34 1896.59,1554.01 1905.5,1536.5C 1906.59,1534.65 1907.93,1532.98 1909.5,1531.5C 1909.29,1530.91 1908.96,1530.41 1908.5,1530C 1910.84,1527.34 1913.01,1524.51 1915,1521.5C 1920.15,1509.86 1925.82,1498.52 1932,1487.5C 1932.75,1486.87 1933.58,1486.37 1934.5,1486C 1933.55,1485.28 1933.38,1484.45 1934,1483.5C 1935.81,1481.31 1937.97,1478.81 1940.5,1476C 1940.17,1475.67 1939.83,1475.33 1939.5,1475C 1946.32,1463.94 1952.98,1452.77 1959.5,1441.5C 1961.92,1435 1965.26,1429.83 1969.5,1426C 1969.17,1425.67 1968.83,1425.33 1968.5,1425C 1978.01,1411.14 1986.35,1396.64 1993.5,1381.5C 1994.55,1381.65 1995.55,1381.48 1996.5,1381C 1995.48,1379.95 1995.32,1378.78 1996,1377.5C 1996.33,1377.83 1996.67,1378.17 1997,1378.5C 1998.05,1376.91 1999.21,1375.41 2000.5,1374C 2000.17,1373.67 1999.83,1373.33 1999.5,1373C 2009.07,1359.21 2018.4,1345.21 2027.5,1331C 2026.55,1330.28 2026.38,1329.45 2027,1328.5C 2028.5,1327.33 2030,1326.17 2031.5,1325C 2031.17,1324.67 2030.83,1324.33 2030.5,1324C 2035.81,1317.21 2040.47,1310.04 2044.5,1302.5C 2057.74,1282.9 2071.41,1263.4 2085.5,1244C 2086.15,1240.84 2088.15,1238.18 2091.5,1236C 2091.17,1235.67 2090.83,1235.33 2090.5,1235C 2098.1,1225.39 2105.43,1215.56 2112.5,1205.5C 2113.43,1204.31 2113.76,1202.98 2113.5,1201.5C 2114.68,1201.72 2115.68,1201.39 2116.5,1200.5C 2122.71,1192.95 2128.04,1185.28 2132.5,1177.5C 2140.02,1168.49 2147.68,1159.65 2155.5,1151C 2155.17,1150.67 2154.83,1150.33 2154.5,1150C 2171.93,1130.06 2189.6,1110.23 2207.5,1090.5C 2223.22,1075.45 2239.55,1061.11 2256.5,1047.5C 2267.19,1039.71 2277.86,1033.21 2288.5,1028C 2308.45,1023.38 2320.78,1031.55 2325.5,1052.5C 2328.98,1087.62 2322.98,1121.12 2307.5,1153C 2308.79,1155.09 2308.12,1156.42 2305.5,1157C 2305.83,1157.33 2306.17,1157.67 2306.5,1158C 2297.93,1177.02 2289.43,1196.19 2281,1215.5C 2280.67,1215.17 2280.33,1214.83 2280,1214.5C 2279.63,1215.42 2279.13,1216.25 2278.5,1217C 2279.79,1219.09 2279.12,1220.42 2276.5,1221C 2276.83,1221.33 2277.17,1221.67 2277.5,1222C 2269.69,1233.79 2263.02,1246.29 2257.5,1259.5C 2254.28,1264.79 2250.94,1269.95 2247.5,1275C 2248.79,1277.09 2248.12,1278.42 2245.5,1279C 2245.5,1280 2245.5,1281 2245.5,1282C 2244.17,1283 2242.83,1284 2241.5,1285C 2241.83,1285.33 2242.17,1285.67 2242.5,1286C 2236.5,1295.5 2231.17,1305.33 2226.5,1315.5C 2220.95,1323.21 2215.61,1331.05 2210.5,1339C 2210.83,1339.33 2211.17,1339.67 2211.5,1340C 2205.69,1348.46 2200.52,1357.29 2196,1366.5C 2195.67,1366.17 2195.33,1365.83 2195,1365.5C 2193.86,1368.1 2193.03,1370.77 2192.5,1373.5C 2191.45,1373.35 2190.45,1373.52 2189.5,1374C 2190.45,1374.72 2190.62,1375.55 2190,1376.5C 2187.34,1379.79 2184.68,1383.13 2182,1386.5C 2160.05,1423.03 2136.88,1458.2 2112.5,1492C 2112.83,1492.33 2113.17,1492.67 2113.5,1493C 2106.93,1500.79 2100.6,1508.79 2094.5,1517C 2093.85,1520.16 2091.85,1522.82 2088.5,1525C 2088.83,1525.33 2089.17,1525.67 2089.5,1526C 2082.88,1533.62 2077.05,1541.78 2072,1550.5C 2065.65,1557.52 2059.65,1564.85 2054,1572.5C 2050.91,1578.34 2047.08,1583.68 2042.5,1588.5C 2041.57,1589.69 2041.24,1591.02 2041.5,1592.5C 2040.32,1592.28 2039.32,1592.61 2038.5,1593.5C 2000.69,1644.27 1961.36,1691.77 1920.5,1736C 1904.09,1755.58 1885.43,1774.41 1864.5,1792.5C 1863.61,1793.32 1863.28,1794.32 1863.5,1795.5C 1862.45,1795.35 1861.45,1795.52 1860.5,1796C 1860.83,1796.33 1861.17,1796.67 1861.5,1797C 1858.83,1798.67 1856.17,1800.33 1853.5,1802C 1853.83,1802.33 1854.17,1802.67 1854.5,1803C 1839.88,1835.82 1828.88,1869.99 1821.5,1905.5C 1819.62,1907.27 1819.29,1909.43 1820.5,1912C 1820.74,1914.35 1819.91,1916.18 1818,1917.5C 1814.86,1938.52 1814.86,1959.52 1818,1980.5C 1820.34,1981.29 1820.84,1982.63 1819.5,1984.5C 1820,1985.5 1820.5,1986.5 1821,1987.5C 1821.33,1987.17 1821.67,1986.83 1822,1986.5C 1822.43,1989.5 1823.6,1992.17 1825.5,1994.5C 1829.56,1998.2 1834.22,2000.86 1839.5,2002.5C 1849.48,2003.67 1859.48,2003.83 1869.5,2003C 1892.65,1997.16 1915.65,1989.16 1938.5,1979C 2012.4,1941.61 2082.07,1898.61 2147.5,1850C 2167.84,1834.45 2188.84,1818.79 2210.5,1803C 2211.83,1802.33 2211.83,1801.67 2210.5,1801C 2213.22,1800 2213.88,1798.33 2212.5,1796C 2221.67,1775.85 2230.17,1755.35 2238,1734.5C 2248.53,1713.69 2258.86,1691.36 2269,1667.5C 2269.75,1666.87 2270.58,1666.37 2271.5,1666C 2270.66,1664.99 2270.33,1663.82 2270.5,1662.5C 2272.94,1662.88 2273.61,1662.21 2272.5,1660.5C 2291.72,1622 2311.22,1583.67 2331,1545.5C 2331.75,1544.87 2332.58,1544.37 2333.5,1544C 2342.58,1525.99 2352.25,1508.49 2362.5,1491.5 Z M 2178.5,1330.5 C 2170.44,1345.54 2161.44,1360.54 2151.5,1375.5C 2109.74,1442.2 2065.07,1507.36 2017.5,1571C 1989.7,1606.96 1961.37,1642.46 1932.5,1677.5C 1928.33,1681.83 1924,1686 1919.5,1690C 1919.5,1691 1919.5,1692 1919.5,1693C 1908.42,1704.2 1897.42,1715.36 1886.5,1726.5C 1897.32,1698.87 1910.15,1672.54 1925,1647.5C 1928.85,1638.31 1933.35,1629.47 1938.5,1621C 1938.17,1620.67 1937.83,1620.33 1937.5,1620C 1938.83,1619 1940.17,1618 1941.5,1617C 1941.5,1616 1941.5,1615 1941.5,1614C 1950.38,1599.41 1958.88,1583.58 1967,1566.5C 1968.53,1563.44 1970.53,1560.77 1973,1558.5C 1973.62,1557.55 1973.45,1556.72 1972.5,1556C 1975.12,1555.42 1975.79,1554.09 1974.5,1552C 1975.42,1551.63 1976.25,1551.13 1977,1550.5C 1986.58,1530.96 1996.75,1512.3 2007.5,1494.5C 2044.91,1426.18 2084.91,1358.84 2127.5,1292.5C 2127.82,1290.95 2128.82,1290.29 2130.5,1290.5C 2133.21,1284.75 2136.21,1279.08 2139.5,1273.5C 2170.32,1226.47 2202.98,1181.47 2237.5,1138.5C 2247.17,1128.17 2256.83,1117.83 2266.5,1107.5C 2268.66,1106.59 2270.66,1105.42 2272.5,1104C 2272.17,1103.67 2271.83,1103.33 2271.5,1103C 2273.53,1102.37 2275.2,1101.2 2276.5,1099.5C 2277.73,1098.72 2279.06,1098.22 2280.5,1098C 2280.17,1097.67 2279.83,1097.33 2279.5,1097C 2282.82,1096.48 2285.49,1095.65 2287.5,1094.5C 2287.08,1105.18 2284.91,1115.52 2281,1125.5C 2279.38,1129.06 2278.05,1132.73 2277,1136.5C 2275.02,1137.54 2274.52,1138.88 2275.5,1140.5C 2268.91,1156.08 2262.41,1172.08 2256,1188.5C 2244.04,1211.08 2231.54,1236.08 2218.5,1263.5C 2216.66,1265.87 2214.82,1268.21 2213,1270.5C 2212.38,1271.45 2212.55,1272.28 2213.5,1273C 2212.58,1273.37 2211.75,1273.87 2211,1274.5C 2209.61,1278.29 2207.94,1281.96 2206,1285.5C 2205.67,1285.17 2205.33,1284.83 2205,1284.5C 2197.26,1301.06 2188.42,1316.39 2178.5,1330.5 Z M 3551.5,1239.5 C 3541.58,1259.35 3530.58,1279.35 3518.5,1299.5C 3509.76,1315.32 3500.76,1330.98 3491.5,1346.5C 3463.92,1391.8 3435.26,1435.97 3405.5,1479C 3405.83,1479.33 3406.17,1479.67 3406.5,1480C 3403.15,1482.18 3401.15,1484.84 3400.5,1488C 3394.73,1495.61 3388.73,1503.61 3382.5,1512C 3344.46,1567.39 3302.63,1622.22 3257,1676.5C 3242.52,1692.45 3227.69,1708.12 3212.5,1723.5C 3211.68,1724.39 3210.68,1724.72 3209.5,1724.5C 3212.72,1715.06 3216.22,1705.73 3220,1696.5C 3222.34,1695.71 3222.84,1694.37 3221.5,1692.5C 3222.32,1691.61 3223.32,1691.28 3224.5,1691.5C 3230.83,1674.37 3237.66,1657.37 3245,1640.5C 3246.54,1636.58 3248.71,1633.08 3251.5,1630C 3250.39,1628.19 3251.06,1627.35 3253.5,1627.5C 3253.67,1626.18 3253.34,1625.01 3252.5,1624C 3256.7,1619.76 3259.2,1614.6 3260,1608.5C 3268.85,1591.98 3277.35,1575.14 3285.5,1558C 3286.42,1557.63 3287.25,1557.13 3288,1556.5C 3298.29,1534.25 3309.12,1512.91 3320.5,1492.5C 3327.77,1478.96 3334.77,1465.3 3341.5,1451.5C 3344.2,1451.62 3344.87,1450.62 3343.5,1448.5C 3345.5,1446.24 3347.5,1443.91 3349.5,1441.5C 3359.29,1422.16 3369.79,1404.5 3381,1388.5C 3385.58,1380.55 3390.08,1372.55 3394.5,1364.5C 3399.39,1356.66 3404.73,1349.16 3410.5,1342C 3410.17,1341.67 3409.83,1341.33 3409.5,1341C 3410.45,1340.52 3411.45,1340.35 3412.5,1340.5C 3412.21,1338.71 3412.55,1337.05 3413.5,1335.5C 3420.77,1325.27 3427.77,1314.94 3434.5,1304.5C 3439.8,1296 3445.8,1287.83 3452.5,1280C 3452.17,1279.67 3451.83,1279.33 3451.5,1279C 3458.26,1270.14 3465.26,1261.47 3472.5,1253C 3472.17,1252.67 3471.83,1252.33 3471.5,1252C 3472.45,1251.52 3473.45,1251.35 3474.5,1251.5C 3474.45,1249.43 3475.12,1247.6 3476.5,1246C 3492.23,1224.86 3508.9,1204.52 3526.5,1185C 3526.17,1184.67 3525.83,1184.33 3525.5,1184C 3531.42,1176.97 3537.75,1170.3 3544.5,1164C 3544.17,1163.67 3543.83,1163.33 3543.5,1163C 3558.96,1145.7 3574.63,1128.53 3590.5,1111.5C 3593.71,1108.79 3597.04,1106.29 3600.5,1104C 3600.17,1103.67 3599.83,1103.33 3599.5,1103C 3603.36,1100.6 3607.36,1098.43 3611.5,1096.5C 3613.67,1096.43 3614,1097.1 3612.5,1098.5C 3614.75,1099.32 3614.91,1100.32 3613,1101.5C 3612.82,1104.55 3612.32,1107.55 3611.5,1110.5C 3605.49,1125.85 3599.49,1141.19 3593.5,1156.5C 3582.05,1180.07 3570.39,1204.07 3558.5,1228.5C 3556.22,1232.85 3553.89,1236.52 3551.5,1239.5 Z M 2635.5,1295.5 C 2549.13,1444.71 2448.63,1583.71 2334,1712.5C 2330.11,1716.06 2326.27,1719.56 2322.5,1723C 2322.83,1723.33 2323.17,1723.67 2323.5,1724C 2321,1725.35 2318.67,1726.85 2316.5,1728.5C 2320.53,1718.76 2324.87,1709.1 2329.5,1699.5C 2333.13,1691.26 2337.46,1683.59 2342.5,1676.5C 2349.82,1662.65 2356.98,1648.65 2364,1634.5C 2364.95,1632.43 2366.45,1630.93 2368.5,1630C 2367.39,1628.19 2368.06,1627.35 2370.5,1627.5C 2370.67,1626.18 2370.34,1625.01 2369.5,1624C 2370.42,1623.63 2371.25,1623.13 2372,1622.5C 2435.49,1502.07 2503.82,1385.4 2577,1272.5C 2580.16,1267.64 2583.66,1263.14 2587.5,1259C 2587.17,1258.67 2586.83,1258.33 2586.5,1258C 2587.45,1257.52 2588.45,1257.35 2589.5,1257.5C 2589.24,1256.02 2589.57,1254.69 2590.5,1253.5C 2617.32,1213.53 2646.32,1175.19 2677.5,1138.5C 2687.36,1127.66 2698.69,1116.66 2711.5,1105.5C 2714.74,1103.96 2717.91,1102.3 2721,1100.5C 2721.25,1101.71 2722.09,1102.88 2723.5,1104C 2721.24,1114.56 2718.24,1125.06 2714.5,1135.5C 2708.86,1148.45 2703.86,1161.28 2699.5,1174C 2698.55,1174.48 2697.55,1174.65 2696.5,1174.5C 2696.19,1178.27 2695.36,1181.93 2694,1185.5C 2685.9,1200.85 2678.06,1216.85 2670.5,1233.5C 2668.02,1234.42 2667.35,1235.92 2668.5,1238C 2665.88,1238.58 2665.21,1239.91 2666.5,1242C 2658.53,1254.24 2651.36,1267.07 2645,1280.5C 2642.02,1285.64 2638.86,1290.64 2635.5,1295.5 Z M 3209.5,1724.5 C 3210.48,1726.54 3209.81,1726.87 3207.5,1725.5C 3207.96,1724.7 3208.62,1724.37 3209.5,1724.5 Z M 1886.5,1726.5 C 1886.36,1728.34 1885.69,1728.67 1884.5,1727.5C 1884.96,1726.7 1885.62,1726.37 1886.5,1726.5 Z M 2316.5,1728.5 C 2316.38,1730.61 2315.21,1732.61 2313,1734.5C 2312.33,1733.83 2312.33,1733.17 2313,1732.5C 2313.74,1730.68 2314.91,1729.35 2316.5,1728.5 Z M 2784.5,1814.5 C 2756.11,1863.37 2721.77,1908.71 2681.5,1950.5C 2671.35,1959.15 2661.35,1967.99 2651.5,1977C 2644.79,1982.53 2637.29,1986.69 2629,1989.5C 2624.95,1988.28 2622.45,1985.61 2621.5,1981.5C 2619.89,1970.3 2620.39,1959.3 2623,1948.5C 2627.65,1934.88 2632.32,1921.22 2637,1907.5C 2645.11,1890.59 2653.45,1873.26 2662,1855.5C 2666.78,1846.46 2672.28,1837.96 2678.5,1830C 2678.17,1829.67 2677.83,1829.33 2677.5,1829C 2678.45,1828.52 2679.45,1828.35 2680.5,1828.5C 2681.37,1824.93 2682.87,1821.6 2685,1818.5C 2691.77,1809.91 2698.27,1801.24 2704.5,1792.5C 2717.19,1776.43 2732.19,1762.93 2749.5,1752C 2761.17,1745.98 2773.5,1743.48 2786.5,1744.5C 2792.6,1746.59 2797.6,1750.25 2801.5,1755.5C 2804.73,1761.96 2807.73,1768.46 2810.5,1775C 2807.26,1778.8 2804.26,1782.8 2801.5,1787C 2801.83,1787.33 2802.17,1787.67 2802.5,1788C 2798.67,1792.85 2795.17,1798.02 2792,1803.5C 2789.89,1804.04 2789.39,1805.04 2790.5,1806.5C 2788.22,1808.92 2786.22,1811.59 2784.5,1814.5 Z M 1450.5,1859.5 C 1426.45,1895.16 1399.45,1927.83 1369.5,1957.5C 1361.02,1964.15 1353.02,1971.32 1345.5,1979C 1338.59,1984.87 1330.76,1989.04 1322,1991.5C 1319.76,1990.91 1317.59,1990.24 1315.5,1989.5C 1314.25,1984.35 1312.92,1979.18 1311.5,1974C 1314.49,1955.69 1319.49,1938.03 1326.5,1921C 1326.17,1920.67 1325.83,1920.33 1325.5,1920C 1327.7,1915.78 1330.03,1911.61 1332.5,1907.5C 1331.13,1905.38 1331.8,1904.38 1334.5,1904.5C 1342.37,1882.76 1352.37,1862.09 1364.5,1842.5C 1366.4,1839.73 1368.4,1836.9 1370.5,1834C 1370.17,1833.67 1369.83,1833.33 1369.5,1833C 1371.5,1831.67 1373.17,1830 1374.5,1828C 1378.69,1820.04 1384.02,1812.38 1390.5,1805C 1390.17,1804.67 1389.83,1804.33 1389.5,1804C 1396.28,1795.72 1403.28,1787.55 1410.5,1779.5C 1418.23,1773.07 1425.9,1766.57 1433.5,1760C 1445.42,1751.66 1458.75,1746.83 1473.5,1745.5C 1481.12,1746.48 1487.45,1749.81 1492.5,1755.5C 1498.2,1762.93 1500.87,1771.26 1500.5,1780.5C 1493.44,1791.85 1486.11,1803.02 1478.5,1814C 1478.83,1814.33 1479.17,1814.67 1479.5,1815C 1476.36,1817.3 1474.53,1820.47 1474,1824.5C 1473.67,1824.17 1473.33,1823.83 1473,1823.5C 1471.43,1827.28 1469.59,1830.95 1467.5,1834.5C 1461.41,1843.13 1455.75,1851.46 1450.5,1859.5 Z M 2834.5,1792.5 C 2835.71,1793.5 2835.55,1794.5 2834,1795.5C 2833.53,1794.42 2833.7,1793.42 2834.5,1792.5 Z M 1526.5,1799.5 C 1526.71,1798.08 1527.21,1796.74 1528,1795.5C 1528.77,1797.35 1528.27,1798.69 1526.5,1799.5 Z M 2831.5,1801.5 C 2831.24,1800.02 2831.57,1798.69 2832.5,1797.5C 2833.81,1799.24 2833.48,1800.57 2831.5,1801.5 Z"/></g>
<g><path style="opacity:0.004" fill="#6d7070" d="M 2517.5,1247.5 C 2516.83,1246.17 2516.83,1246.17 2517.5,1247.5 Z"/></g>
<g><path style="opacity:0.004" fill="#6d7070" d="M 2455.5,1338.5 C 2454.83,1337.17 2454.83,1337.17 2455.5,1338.5 Z"/></g>
<g><path style="opacity:0.004" fill="#6d7070" d="M 2362.5,1491.5 C 2361.83,1490.17 2361.83,1490.17 2362.5,1491.5 Z"/></g>
<g><path style="opacity:0.004" fill="#6d7070" d="M 3247.5,1491.5 C 3246.83,1490.17 3246.83,1490.17 3247.5,1491.5 Z"/></g>
<g><path style="opacity:0.004" fill="#6d7070" d="M 1878.5,1588.5 C 1877.83,1587.17 1877.83,1587.17 1878.5,1588.5 Z"/></g>
<g><path style="opacity:0.004" fill="#6d7070" d="M 1519.5,1734.5 C 1520.83,1735.17 1520.83,1735.17 1519.5,1734.5 Z"/></g>
<g><path style="opacity:0.004" fill="#6d7070" d="M 1515.5,1815.5 C 1516.83,1816.17 1516.83,1816.17 1515.5,1815.5 Z"/></g>
<g><path style="opacity:0.004" fill="#6d7070" d="M 1268.5,2028.5 C 1267.83,2029.17 1267.83,2029.17 1268.5,2028.5 Z"/></g>
<g><path style="opacity:0.808" fill="#ca884f" d="M 1981.5,2243.5 C 1973.29,2252.86 1965.29,2262.52 1957.5,2272.5C 1938.27,2300.65 1917.6,2327.15 1895.5,2352C 1888.56,2361.1 1880.56,2368.94 1871.5,2375.5C 1865.76,2377.27 1861.26,2375.6 1858,2370.5C 1855.48,2363.11 1854.82,2355.44 1856,2347.5C 1859.93,2323.07 1867.43,2300.4 1878.5,2279.5C 1879.69,2278.15 1881.02,2276.98 1882.5,2276C 1882.17,2275.67 1881.83,2275.33 1881.5,2275C 1889.45,2268.23 1895.11,2269.06 1898.5,2277.5C 1894.03,2289.28 1888.36,2300.45 1881.5,2311C 1882.79,2313.09 1882.12,2314.42 1879.5,2315C 1879.83,2315.33 1880.17,2315.67 1880.5,2316C 1872.93,2330.87 1868.6,2346.71 1867.5,2363.5C 1869.71,2363.03 1871.71,2362.03 1873.5,2360.5C 1890.27,2341.79 1905.94,2322.79 1920.5,2303.5C 1926.02,2294.58 1932.02,2286.75 1938.5,2280C 1938.17,2279.67 1937.83,2279.33 1937.5,2279C 1946.4,2268.53 1955.07,2257.87 1963.5,2247C 1963.17,2246.67 1962.83,2246.33 1962.5,2246C 1970.18,2238.16 1977.51,2229.99 1984.5,2221.5C 1985.39,2220.68 1985.72,2219.68 1985.5,2218.5C 1986.55,2218.65 1987.55,2218.48 1988.5,2218C 1988.17,2217.67 1987.83,2217.33 1987.5,2217C 1989.82,2215.84 1992.16,2214.67 1994.5,2213.5C 1996.76,2212.35 1999.1,2212.19 2001.5,2213C 2001.17,2213.33 2000.83,2213.67 2000.5,2214C 2001.77,2214.31 2002.93,2214.81 2004,2215.5C 2005.21,2222.19 2004.37,2228.53 2001.5,2234.5C 2001.71,2235.09 2002.04,2235.59 2002.5,2236C 2000.21,2240.09 1998.04,2244.25 1996,2248.5C 1989.94,2264.35 1984.27,2280.35 1979,2296.5C 1978.67,2296.17 1978.33,2295.83 1978,2295.5C 1976.79,2301.22 1975.79,2306.89 1975,2312.5C 1998.69,2291.97 2020.19,2270.64 2039.5,2248.5C 2060.74,2227.09 2081.74,2206.26 2102.5,2186C 2109.52,2180.21 2117.52,2174.88 2126.5,2170C 2138.85,2166.85 2143.18,2171.35 2139.5,2183.5C 2132.14,2203.26 2123.64,2221.93 2114,2239.5C 2102.96,2264.25 2092.46,2288.42 2082.5,2312C 2074.23,2336.76 2067.56,2360.26 2062.5,2382.5C 2061.17,2394.17 2061.17,2405.83 2062.5,2417.5C 2065.88,2419.57 2069.21,2421.57 2072.5,2423.5C 2073.27,2433.87 2068.6,2438.03 2058.5,2436C 2057.06,2433.58 2054.9,2431.08 2052,2428.5C 2046.64,2418.38 2044.47,2407.54 2045.5,2396C 2045.62,2385.08 2046.62,2374.25 2048.5,2363.5C 2052.35,2348 2056.18,2334 2060,2321.5C 2060.33,2321.83 2060.67,2322.17 2061,2322.5C 2069.81,2298.59 2079.31,2275.25 2089.5,2252.5C 2098.84,2235.16 2107.84,2217.16 2116.5,2198.5C 2119.9,2194.54 2122.56,2190.54 2124.5,2186.5C 2124,2185.48 2123.33,2185.31 2122.5,2186C 2110.53,2196.53 2097.53,2208.53 2083.5,2222C 2050.72,2256.44 2017.72,2289.78 1984.5,2322C 1980.31,2324.78 1975.81,2326.94 1971,2328.5C 1967.26,2327.38 1964.09,2325.38 1961.5,2322.5C 1960.34,2315.86 1960.17,2309.19 1961,2302.5C 1965.26,2285.91 1971.1,2269.91 1978.5,2254.5C 1979.4,2250.72 1980.4,2247.06 1981.5,2243.5 Z M 1984.5,2239.5 C 1984.45,2241.63 1983.45,2242.97 1981.5,2243.5C 1981.74,2241.6 1982.74,2240.26 1984.5,2239.5 Z"/></g>
<g><path style="opacity:0.819" fill="#ca884f" d="M 1317.5,2173.5 C 1336.24,2170.02 1351.57,2175.52 1363.5,2190C 1363.17,2190.33 1362.83,2190.67 1362.5,2191C 1365.75,2194.13 1367.58,2197.96 1368,2202.5C 1368.33,2202.17 1368.67,2201.83 1369,2201.5C 1368.95,2210.3 1369.79,2218.96 1371.5,2227.5C 1367.95,2236.96 1361.61,2239.63 1352.5,2235.5C 1352.17,2230.79 1352.51,2226.12 1353.5,2221.5C 1358.02,2211.12 1357.02,2201.29 1350.5,2192C 1350.83,2191.67 1351.17,2191.33 1351.5,2191C 1341.7,2181.59 1330.37,2179.25 1317.5,2184C 1305.92,2189.49 1295.92,2196.33 1287.5,2204.5C 1285.76,2207.65 1283.76,2210.65 1281.5,2213.5C 1275.72,2224.49 1275.05,2235.82 1279.5,2247.5C 1283.71,2251.95 1288.38,2255.95 1293.5,2259.5C 1294.72,2261.84 1294.72,2264.17 1293.5,2266.5C 1284.53,2270.85 1275.53,2275.02 1266.5,2279C 1252.22,2287.95 1240.22,2299.29 1230.5,2313C 1230.83,2313.33 1231.17,2313.67 1231.5,2314C 1214.71,2338.3 1210.71,2363.8 1219.5,2390.5C 1223.33,2401.32 1230.99,2408.65 1242.5,2412.5C 1258.59,2415.27 1273.92,2413.43 1288.5,2407C 1295.39,2401.79 1302.39,2396.62 1309.5,2391.5C 1324.22,2377.97 1334.22,2361.97 1339.5,2343.5C 1341.49,2331.75 1340.16,2320.42 1335.5,2309.5C 1334.62,2308.24 1333.62,2307.07 1332.5,2306C 1328.68,2305.63 1325.02,2304.79 1321.5,2303.5C 1320.18,2292.48 1324.85,2288.15 1335.5,2290.5C 1342.2,2293.57 1346.87,2298.57 1349.5,2305.5C 1350.17,2307.83 1350.83,2310.17 1351.5,2312.5C 1352.83,2323.5 1352.83,2334.5 1351.5,2345.5C 1350.64,2349.6 1349.47,2353.6 1348,2357.5C 1344.82,2364.52 1341.66,2371.52 1338.5,2378.5C 1336.57,2378.73 1334.9,2379.56 1333.5,2381C 1333.83,2381.33 1334.17,2381.67 1334.5,2382C 1327.99,2389.01 1321.32,2395.85 1314.5,2402.5C 1313.61,2403.32 1313.28,2404.32 1313.5,2405.5C 1307.3,2409.29 1300.63,2413.63 1293.5,2418.5C 1275.69,2428.08 1257.03,2430.92 1237.5,2427C 1209.27,2415.95 1195.27,2395.12 1195.5,2364.5C 1196.29,2348.19 1199.79,2332.53 1206,2317.5C 1206.33,2317.83 1206.67,2318.17 1207,2318.5C 1209.48,2311.7 1213.31,2305.86 1218.5,2301C 1217.36,2300.26 1217.36,2299.43 1218.5,2298.5C 1234.63,2282.1 1251.97,2269.27 1270.5,2260C 1268.63,2258.92 1266.96,2257.58 1265.5,2256C 1265.83,2255.67 1266.17,2255.33 1266.5,2255C 1264.25,2253.91 1262.91,2252.08 1262.5,2249.5C 1260.5,2236.49 1261.67,2223.82 1266,2211.5C 1271.58,2203.7 1278.08,2196.7 1285.5,2190.5C 1286.39,2189.68 1286.72,2188.68 1286.5,2187.5C 1290.11,2185.38 1294.44,2183.21 1299.5,2181C 1299.17,2180.67 1298.83,2180.33 1298.5,2180C 1305.15,2178.06 1311.48,2175.9 1317.5,2173.5 Z"/></g>
<g><path style="opacity:0.828" fill="#ca884f" d="M 3132.5,2278.5 C 3116.84,2307.08 3108.17,2338.25 3106.5,2372C 3107.62,2381.56 3109.12,2391.06 3111,2400.5C 3115.69,2414.86 3125.53,2421.03 3140.5,2419C 3154.16,2414.52 3166.16,2408.19 3176.5,2400C 3188.91,2389.3 3201.58,2378.3 3214.5,2367C 3225.95,2354.41 3238.95,2341.91 3253.5,2329.5C 3255.94,2328.65 3258.27,2327.65 3260.5,2326.5C 3266.91,2329.16 3268.91,2333.82 3266.5,2340.5C 3262.62,2342.52 3258.62,2344.35 3254.5,2346C 3250.29,2351.35 3244.95,2356.18 3238.5,2360.5C 3230.64,2367.52 3223.64,2374.69 3217.5,2382C 3204.47,2391.37 3192.47,2401.04 3181.5,2411C 3172.59,2416.43 3162.93,2421.77 3152.5,2427C 3126.88,2436.75 3108.05,2429.25 3096,2404.5C 3094.2,2400.73 3093.04,2396.06 3092.5,2390.5C 3090.81,2367.99 3091.31,2345.66 3094,2323.5C 3094.33,2323.83 3094.67,2324.17 3095,2324.5C 3094.9,2320.31 3096.07,2316.64 3098.5,2313.5C 3096.94,2311.1 3097.27,2309.1 3099.5,2307.5C 3114.7,2260.06 3143.04,2221.9 3184.5,2193C 3200.32,2181.65 3218.65,2175.15 3239.5,2173.5C 3267.58,2174.91 3280.91,2189.58 3279.5,2217.5C 3278.53,2242.92 3270.53,2265.75 3255.5,2286C 3255.83,2286.33 3256.17,2286.67 3256.5,2287C 3249.49,2295.67 3242.66,2304.5 3236,2313.5C 3232.85,2316.6 3229.35,2319.27 3225.5,2321.5C 3219.39,2323.64 3215.39,2321.64 3213.5,2315.5C 3213.83,2314.5 3214.17,2313.5 3214.5,2312.5C 3220.5,2305.82 3226.5,2299.15 3232.5,2292.5C 3237.34,2286.41 3242,2280.24 3246.5,2274C 3246.17,2273.67 3245.83,2273.33 3245.5,2273C 3258.39,2257.07 3265.73,2238.41 3267.5,2217C 3268.13,2208.61 3265.46,2201.61 3259.5,2196C 3259.83,2195.67 3260.17,2195.33 3260.5,2195C 3258.01,2193.54 3255.35,2192.54 3252.5,2192C 3252.83,2191.67 3253.17,2191.33 3253.5,2191C 3243.74,2190.28 3234.08,2190.94 3224.5,2193C 3208.11,2199.09 3192.45,2208.75 3177.5,2222C 3169.74,2228.94 3162.07,2236.77 3154.5,2245.5C 3146.22,2256.61 3138.89,2267.61 3132.5,2278.5 Z"/></g>
<g><path style="opacity:0.838" fill="#ca884f" d="M 2456.5,2303.5 C 2463.49,2295.5 2470.16,2287.17 2476.5,2278.5C 2480.37,2273.92 2485.04,2270.59 2490.5,2268.5C 2492.38,2268.72 2494.05,2269.38 2495.5,2270.5C 2496.14,2278.95 2497.47,2287.29 2499.5,2295.5C 2500.31,2298.8 2502.31,2300.97 2505.5,2302C 2505.17,2302.33 2504.83,2302.67 2504.5,2303C 2512.35,2303.89 2520.02,2303.06 2527.5,2300.5C 2529.88,2295.81 2532.88,2291.65 2536.5,2288C 2539.45,2287.11 2542.12,2287.61 2544.5,2289.5C 2545.49,2293.45 2545.82,2297.45 2545.5,2301.5C 2547.74,2299.26 2550.07,2296.93 2552.5,2294.5C 2556.75,2289 2560.75,2283.33 2564.5,2277.5C 2567.32,2275.12 2570.65,2272.45 2574.5,2269.5C 2577.17,2268.17 2579.83,2268.17 2582.5,2269.5C 2583,2270.5 2583.5,2271.5 2584,2272.5C 2584.33,2272.17 2584.67,2271.83 2585,2271.5C 2584.82,2280.73 2585.99,2289.73 2588.5,2298.5C 2591.78,2302.28 2595.95,2303.95 2601,2303.5C 2605.98,2303.19 2610.81,2302.19 2615.5,2300.5C 2620.92,2291.89 2628.42,2286.22 2638,2283.5C 2640.87,2284.76 2643.7,2286.09 2646.5,2287.5C 2647.28,2288.73 2647.78,2290.06 2648,2291.5C 2654.77,2285.52 2660.43,2286.52 2665,2294.5C 2665.23,2299.28 2666.39,2303.78 2668.5,2308C 2668.17,2308.33 2667.83,2308.67 2667.5,2309C 2668.83,2309.67 2669.83,2310.67 2670.5,2312C 2676.17,2312.67 2681.83,2312.67 2687.5,2312C 2695.96,2308.18 2703.96,2305.01 2711.5,2302.5C 2714.09,2297.66 2716.92,2292.99 2720,2288.5C 2724.57,2284.91 2729.4,2284.58 2734.5,2287.5C 2734.44,2292.95 2732.77,2297.95 2729.5,2302.5C 2736.78,2297.93 2743.45,2291.93 2749.5,2284.5C 2753.29,2281.29 2757.29,2278.29 2761.5,2275.5C 2766.31,2274.23 2770.97,2274.56 2775.5,2276.5C 2775.83,2282.21 2775.5,2287.87 2774.5,2293.5C 2769.83,2307.73 2765.16,2321.73 2760.5,2335.5C 2760.83,2335.83 2761.17,2336.17 2761.5,2336.5C 2775.35,2325.69 2786.68,2313.35 2795.5,2299.5C 2805.54,2286.73 2818.2,2282.73 2833.5,2287.5C 2834.6,2296.62 2830.6,2303.79 2821.5,2309C 2819.22,2309.47 2817.22,2310.47 2815.5,2312C 2812.77,2312.18 2810.11,2312.68 2807.5,2313.5C 2806.66,2316.25 2807.66,2318.42 2810.5,2320C 2826.31,2320.73 2839.97,2316.73 2851.5,2308C 2853.17,2307.67 2854.83,2307.33 2856.5,2307C 2856.17,2306.67 2855.83,2306.33 2855.5,2306C 2857.26,2305.8 2858.92,2305.3 2860.5,2304.5C 2864.49,2299.34 2868.82,2294.51 2873.5,2290C 2877.9,2287.4 2882.57,2286.07 2887.5,2286C 2889,2287.11 2890.67,2287.95 2892.5,2288.5C 2893.39,2289.32 2893.72,2290.32 2893.5,2291.5C 2896.4,2291.21 2899.23,2290.55 2902,2289.5C 2909.67,2290.79 2913.01,2295.46 2912,2303.5C 2913.18,2307.37 2915.02,2310.87 2917.5,2314C 2925.34,2314.97 2933,2314.3 2940.5,2312C 2942,2310.13 2944,2309.13 2946.5,2309C 2946.17,2308.67 2945.83,2308.33 2945.5,2308C 2950.33,2306.9 2955,2305.4 2959.5,2303.5C 2960.59,2298.64 2962.76,2294.31 2966,2290.5C 2976.61,2284.28 2981.44,2287.28 2980.5,2299.5C 2979.5,2299.5 2978.5,2299.5 2977.5,2299.5C 2977.5,2300.83 2977.5,2302.17 2977.5,2303.5C 2986.65,2295.85 2995.65,2288.02 3004.5,2280C 3004.17,2279.67 3003.83,2279.33 3003.5,2279C 3008.67,2276.64 3014,2276.14 3019.5,2277.5C 3021.28,2280.27 3022.61,2283.27 3023.5,2286.5C 3019.15,2300.12 3014.98,2313.79 3011,2327.5C 3010.67,2327.17 3010.33,2326.83 3010,2326.5C 3009.74,2329.56 3009.24,2332.56 3008.5,2335.5C 3009,2335.83 3009.5,2336.17 3010,2336.5C 3012.02,2334.65 3014.19,2332.98 3016.5,2331.5C 3025.57,2322.46 3033.9,2313.46 3041.5,2304.5C 3048.29,2303.1 3052.29,2305.93 3053.5,2313C 3053.56,2314.71 3052.89,2316.04 3051.5,2317C 3044.52,2328.21 3035.86,2338.71 3025.5,2348.5C 3019.1,2354.14 3011.76,2356.14 3003.5,2354.5C 3002.05,2353.65 3000.72,2352.65 2999.5,2351.5C 2996.72,2344.69 2996.06,2337.69 2997.5,2330.5C 2999.08,2322.19 3001.74,2315.03 3005.5,2309C 3005.04,2308.59 3004.71,2308.09 3004.5,2307.5C 3007.04,2304.91 3008.54,2301.91 3009,2298.5C 3000.28,2306.93 2991.78,2315.6 2983.5,2324.5C 2978.97,2328.53 2974.31,2332.36 2969.5,2336C 2965.68,2337.03 2962.68,2335.87 2960.5,2332.5C 2959.51,2329.23 2959.18,2325.9 2959.5,2322.5C 2953.4,2324.46 2946.74,2326.79 2939.5,2329.5C 2931.19,2330.67 2922.85,2330.83 2914.5,2330C 2905.09,2326.02 2900.59,2318.86 2901,2308.5C 2897.36,2313.44 2893.86,2318.44 2890.5,2323.5C 2884.48,2323.52 2879.48,2325.69 2875.5,2330C 2872.31,2331.44 2869.14,2332.94 2866,2334.5C 2860.89,2332.9 2857.73,2329.56 2856.5,2324.5C 2842.95,2331.79 2828.62,2336.46 2813.5,2338.5C 2809.68,2337.16 2805.68,2336.33 2801.5,2336C 2797.85,2333.69 2795.35,2330.53 2794,2326.5C 2788.49,2335.01 2781.66,2342.17 2773.5,2348C 2773.83,2348.33 2774.17,2348.67 2774.5,2349C 2769.98,2351.51 2765.14,2353.01 2760,2353.5C 2756.71,2353.18 2753.54,2352.51 2750.5,2351.5C 2746.81,2336.13 2748.65,2321.46 2756,2307.5C 2756.5,2305.53 2756.66,2303.53 2756.5,2301.5C 2746.42,2310.16 2736.75,2319.49 2727.5,2329.5C 2715.7,2338.15 2710.03,2335.32 2710.5,2321C 2704.22,2322.94 2697.89,2325.1 2691.5,2327.5C 2682.17,2328.83 2672.83,2328.83 2663.5,2327.5C 2661.05,2325.98 2658.72,2324.31 2656.5,2322.5C 2654.04,2317.67 2652.04,2312.67 2650.5,2307.5C 2648.36,2312.28 2645.36,2316.95 2641.5,2321.5C 2634.72,2321.8 2629.05,2324.47 2624.5,2329.5C 2622,2330.5 2619.5,2331.5 2617,2332.5C 2613.78,2331.26 2610.62,2329.93 2607.5,2328.5C 2607.22,2325.22 2607.55,2322.06 2608.5,2319C 2604.72,2320.09 2600.05,2320.59 2594.5,2320.5C 2582.94,2320.83 2574.6,2316.5 2569.5,2307.5C 2568.03,2303.58 2566.86,2299.58 2566,2295.5C 2559.84,2305.33 2553.34,2314.33 2546.5,2322.5C 2541.29,2331.05 2535.29,2339.05 2528.5,2346.5C 2527.27,2347.28 2525.94,2347.78 2524.5,2348C 2524.83,2348.33 2525.17,2348.67 2525.5,2349C 2524.5,2349.17 2523.5,2349.33 2522.5,2349.5C 2521.05,2348.59 2519.22,2347.59 2517,2346.5C 2516.33,2340.17 2516.33,2333.83 2517,2327.5C 2519.57,2326.62 2520.07,2325.12 2518.5,2323C 2520.2,2321.14 2521.2,2318.97 2521.5,2316.5C 2499.36,2324.59 2485.02,2317.59 2478.5,2295.5C 2476.15,2297.68 2473.98,2300.02 2472,2302.5C 2461.29,2318.29 2450.12,2333.13 2438.5,2347C 2435.83,2347.67 2433.17,2347.67 2430.5,2347C 2431.15,2345.39 2430.65,2343.89 2429,2342.5C 2427.81,2334.44 2428.97,2326.78 2432.5,2319.5C 2432,2319.17 2431.5,2318.83 2431,2318.5C 2417.75,2326.23 2403.59,2330.9 2388.5,2332.5C 2380.45,2332.38 2374.11,2329.04 2369.5,2322.5C 2358.96,2337.38 2346.63,2350.71 2332.5,2362.5C 2328.52,2364.63 2324.35,2366.29 2320,2367.5C 2314.84,2367.06 2311.34,2364.39 2309.5,2359.5C 2308.08,2346.43 2308.41,2333.43 2310.5,2320.5C 2305.82,2323.29 2301.15,2326.29 2296.5,2329.5C 2288.34,2335.27 2279.34,2337.43 2269.5,2336C 2265.63,2334.23 2262.29,2331.73 2259.5,2328.5C 2249.75,2345.04 2238.08,2360.54 2224.5,2375C 2224.83,2375.33 2225.17,2375.67 2225.5,2376C 2223.03,2377.98 2220.36,2379.65 2217.5,2381C 2217.83,2381.33 2218.17,2381.67 2218.5,2382C 2215.78,2382.65 2213.12,2383.49 2210.5,2384.5C 2207.93,2383.34 2205.27,2382.67 2202.5,2382.5C 2200.64,2376.65 2199.31,2370.65 2198.5,2364.5C 2200.63,2344.48 2205.63,2325.32 2213.5,2307C 2213.17,2306.67 2212.83,2306.33 2212.5,2306C 2216.68,2297.96 2220.35,2289.63 2223.5,2281C 2223.23,2278.11 2222.23,2277.77 2220.5,2280C 2220.83,2280.33 2221.17,2280.67 2221.5,2281C 2219.83,2282.67 2218.17,2284.33 2216.5,2286C 2217.45,2286.72 2217.62,2287.55 2217,2288.5C 2210.86,2294.12 2208.03,2301.12 2208.5,2309.5C 2206.4,2309.2 2204.4,2309.53 2202.5,2310.5C 2197.51,2320.32 2190.84,2328.82 2182.5,2336C 2179.96,2336.38 2177.63,2337.21 2175.5,2338.5C 2172.98,2337.54 2170.64,2336.21 2168.5,2334.5C 2167.51,2329.21 2167.17,2323.87 2167.5,2318.5C 2154.98,2324.73 2141.98,2329.23 2128.5,2332C 2120.14,2332.6 2112.47,2330.43 2105.5,2325.5C 2098.68,2312.93 2100.68,2301.93 2111.5,2292.5C 2119.14,2286.34 2127.81,2283.51 2137.5,2284C 2139.63,2284.9 2141.63,2286.07 2143.5,2287.5C 2143.83,2288.83 2144.17,2290.17 2144.5,2291.5C 2143.25,2300.13 2138.58,2305.97 2130.5,2309C 2126.21,2310.14 2121.87,2310.98 2117.5,2311.5C 2117.1,2314.04 2117.77,2316.21 2119.5,2318C 2122.25,2318.21 2124.75,2319.05 2127,2320.5C 2133.4,2318.92 2139.9,2317.42 2146.5,2316C 2151.54,2313.66 2156.54,2311.33 2161.5,2309C 2161.17,2308.67 2160.83,2308.33 2160.5,2308C 2163.42,2306.77 2166.42,2305.77 2169.5,2305C 2169.17,2304.67 2168.83,2304.33 2168.5,2304C 2170.13,2303.51 2171.8,2303.34 2173.5,2303.5C 2175.12,2299.03 2177.79,2295.19 2181.5,2292C 2187.18,2288.04 2193.51,2286.54 2200.5,2287.5C 2203.01,2283.53 2205.18,2278.87 2207,2273.5C 2217.52,2258.6 2226.52,2243.27 2234,2227.5C 2234.33,2227.83 2234.67,2228.17 2235,2228.5C 2238.78,2223.04 2241.94,2217.71 2244.5,2212.5C 2250.14,2204.57 2255.81,2196.57 2261.5,2188.5C 2266.18,2183.03 2271.34,2182.36 2277,2186.5C 2277.67,2189.5 2277.67,2192.5 2277,2195.5C 2275,2198.75 2273,2202.08 2271,2205.5C 2262.92,2224.15 2254.42,2242.65 2245.5,2261C 2245.96,2261.41 2246.29,2261.91 2246.5,2262.5C 2243.16,2267.18 2240.33,2272.18 2238,2277.5C 2229.93,2297.21 2222.76,2317.21 2216.5,2337.5C 2214.38,2338.4 2214.05,2339.74 2215.5,2341.5C 2215.1,2343.43 2214.1,2344.93 2212.5,2346C 2212.83,2346.33 2213.17,2346.67 2213.5,2347C 2211.26,2354.15 2209.92,2361.49 2209.5,2369C 2210.64,2369.75 2211.64,2369.58 2212.5,2368.5C 2214.5,2366.5 2216.5,2364.5 2218.5,2362.5C 2227.59,2349.99 2236.59,2337.99 2245.5,2326.5C 2252.93,2315.3 2259.6,2303.64 2265.5,2291.5C 2268.18,2289.31 2271.18,2287.81 2274.5,2287C 2273.11,2285.83 2272.27,2284.33 2272,2282.5C 2271.67,2282.83 2271.33,2283.17 2271,2283.5C 2270.19,2281.42 2270.36,2279.42 2271.5,2277.5C 2272.82,2276.21 2274.16,2274.88 2275.5,2273.5C 2277.5,2273.17 2279.5,2272.83 2281.5,2272.5C 2285.17,2272.23 2287.83,2272.9 2289.5,2274.5C 2289.5,2279.5 2289.5,2284.5 2289.5,2289.5C 2286.25,2289.42 2283.25,2290.25 2280.5,2292C 2281.78,2294.47 2281.78,2296.97 2280.5,2299.5C 2279.7,2301.08 2279.2,2302.74 2279,2304.5C 2278.67,2304.17 2278.33,2303.83 2278,2303.5C 2276.63,2304.99 2276.47,2306.49 2277.5,2308C 2275,2311.34 2273.34,2315.18 2272.5,2319.5C 2272.97,2322.96 2274.97,2324.63 2278.5,2324.5C 2281.62,2323.85 2284.62,2322.85 2287.5,2321.5C 2298.43,2314.95 2307.93,2307.62 2316,2299.5C 2320.71,2281.88 2326.54,2264.54 2333.5,2247.5C 2334.31,2247.19 2334.97,2246.69 2335.5,2246C 2328.33,2246.94 2321,2247.61 2313.5,2248C 2310.29,2249.15 2306.96,2249.82 2303.5,2250C 2302.91,2251.3 2301.91,2252.13 2300.5,2252.5C 2298.94,2251.45 2297.28,2250.79 2295.5,2250.5C 2294.53,2245.26 2296.2,2241.26 2300.5,2238.5C 2307.22,2236.84 2313.89,2235.34 2320.5,2234C 2327.65,2233.93 2334.65,2233.09 2341.5,2231.5C 2344.4,2220.69 2348.73,2210.35 2354.5,2200.5C 2356.96,2199.07 2359.46,2197.74 2362,2196.5C 2363.65,2197.74 2365.48,2198.58 2367.5,2199C 2368.79,2202.12 2368.79,2205.29 2367.5,2208.5C 2363.72,2215.62 2360.38,2222.95 2357.5,2230.5C 2359.83,2230.83 2362.17,2231.17 2364.5,2231.5C 2376.11,2229.67 2387.78,2229.17 2399.5,2230C 2401.95,2230.88 2404.28,2232.05 2406.5,2233.5C 2407.83,2236.17 2407.83,2238.83 2406.5,2241.5C 2405.31,2242.84 2403.81,2243.51 2402,2243.5C 2385.93,2241.58 2369.76,2240.91 2353.5,2241.5C 2349.52,2254.49 2345.19,2267.49 2340.5,2280.5C 2339.69,2280.81 2339.03,2281.31 2338.5,2282C 2339.89,2285.09 2339.23,2287.76 2336.5,2290C 2336.96,2290.41 2337.29,2290.91 2337.5,2291.5C 2336.47,2292.7 2335.64,2294.03 2335,2295.5C 2328.75,2313.66 2325.25,2332.32 2324.5,2351.5C 2327.16,2351.34 2329.49,2350.34 2331.5,2348.5C 2348.19,2332.99 2363.19,2314.66 2376.5,2293.5C 2385.08,2285.69 2395.08,2282.53 2406.5,2284C 2412.37,2288.35 2413.04,2293.52 2408.5,2299.5C 2402.19,2306.54 2394.35,2310.21 2385,2310.5C 2384.16,2313.13 2384.66,2315.46 2386.5,2317.5C 2392.14,2318.66 2397.8,2318.83 2403.5,2318C 2409.45,2316.09 2415.45,2314.09 2421.5,2312C 2426.81,2308.34 2432.48,2305.18 2438.5,2302.5C 2440.98,2297.03 2444.31,2292.2 2448.5,2288C 2451.78,2287.07 2454.78,2287.57 2457.5,2289.5C 2457.83,2290.83 2458.17,2292.17 2458.5,2293.5C 2457.83,2296.84 2457.16,2300.18 2456.5,2303.5 Z M 2226.5,2270.5 C 2227.71,2271.5 2227.55,2272.5 2226,2273.5C 2225.53,2272.42 2225.7,2271.42 2226.5,2270.5 Z M 2223.5,2274.5 C 2225.97,2274.95 2226.14,2275.95 2224,2277.5C 2223.52,2276.55 2223.35,2275.55 2223.5,2274.5 Z M 2758.5,2299.5 C 2758.5,2300.83 2757.83,2301.5 2756.5,2301.5C 2756.5,2300.17 2757.17,2299.5 2758.5,2299.5 Z M 2545.5,2301.5 C 2545.34,2303.15 2544.67,2304.49 2543.5,2305.5C 2543.16,2303.52 2543.82,2302.18 2545.5,2301.5 Z M 2456.5,2303.5 C 2456.34,2305.15 2455.67,2306.49 2454.5,2307.5C 2454.23,2305.62 2454.9,2304.29 2456.5,2303.5 Z M 2977.5,2303.5 C 2977.36,2305.34 2976.69,2305.67 2975.5,2304.5C 2975.96,2303.7 2976.62,2303.37 2977.5,2303.5 Z M 2543.5,2305.5 C 2543.48,2307.03 2542.82,2307.53 2541.5,2307C 2542.04,2306.28 2542.71,2305.78 2543.5,2305.5 Z"/></g>
<g><path style="opacity:0.838" fill="#ca884f" d="M 1658.5,2305.5 C 1660.74,2303.26 1663.07,2300.93 1665.5,2298.5C 1670.63,2292.06 1675.29,2285.39 1679.5,2278.5C 1680.55,2278.65 1681.55,2278.48 1682.5,2278C 1682.17,2277.67 1681.83,2277.33 1681.5,2277C 1683.5,2276 1685.5,2275 1687.5,2274C 1687.17,2273.67 1686.83,2273.33 1686.5,2273C 1695.98,2270.31 1699.98,2273.81 1698.5,2283.5C 1698.48,2286.75 1698.15,2289.92 1697.5,2293C 1698.13,2293.75 1698.63,2294.58 1699,2295.5C 1699.33,2295.17 1699.67,2294.83 1700,2294.5C 1700.72,2296.11 1700.55,2297.61 1699.5,2299C 1701.3,2299.32 1701.63,2299.98 1700.5,2301C 1704.15,2304.91 1708.65,2307.07 1714,2307.5C 1717.63,2306.04 1722.13,2305.21 1727.5,2305C 1727.17,2304.67 1726.83,2304.33 1726.5,2304C 1727.94,2303.78 1729.27,2303.28 1730.5,2302.5C 1732.11,2294.73 1736.61,2289.73 1744,2287.5C 1745.5,2287.67 1747,2287.83 1748.5,2288C 1749.49,2289.82 1750.49,2291.65 1751.5,2293.5C 1750.17,2296.17 1748.83,2298.83 1747.5,2301.5C 1747.83,2302.17 1748.17,2302.83 1748.5,2303.5C 1758.43,2294.04 1768.09,2285.2 1777.5,2277C 1781.87,2276.17 1786.2,2276.34 1790.5,2277.5C 1793,2282.52 1794,2287.85 1793.5,2293.5C 1790.24,2293.1 1789.57,2294.27 1791.5,2297C 1786.14,2308.7 1781.8,2321.2 1778.5,2334.5C 1778.67,2335.83 1778.83,2337.17 1779,2338.5C 1790.86,2328.8 1802.03,2317.47 1812.5,2304.5C 1815.03,2303.22 1817.53,2303.22 1820,2304.5C 1820.67,2307.83 1820.67,2311.17 1820,2314.5C 1811.77,2326.9 1802.27,2338.23 1791.5,2348.5C 1783.28,2355.17 1774.95,2356.84 1766.5,2353.5C 1765.46,2349.22 1764.13,2345.05 1762.5,2341C 1764.17,2327.15 1768.17,2313.98 1774.5,2301.5C 1774.17,2300.83 1773.83,2300.17 1773.5,2299.5C 1764.63,2310.38 1754.97,2320.55 1744.5,2330C 1741.06,2332.91 1737.22,2335.07 1733,2336.5C 1729.66,2335.61 1727.33,2333.61 1726,2330.5C 1725.67,2330.83 1725.33,2331.17 1725,2331.5C 1724.25,2328.11 1724.41,2324.77 1725.5,2321.5C 1725,2321.17 1724.5,2320.83 1724,2320.5C 1719.47,2321.75 1714.81,2322.41 1710,2322.5C 1693.14,2323.31 1683.47,2315.31 1681,2298.5C 1670.36,2313.42 1659.53,2328.75 1648.5,2344.5C 1645.8,2348.08 1642.3,2350.41 1638,2351.5C 1635.61,2351.25 1633.61,2350.25 1632,2348.5C 1631.17,2342.47 1631.34,2336.47 1632.5,2330.5C 1634.58,2328.86 1634.92,2326.86 1633.5,2324.5C 1624.87,2327.99 1616.2,2331.16 1607.5,2334C 1602,2334.37 1596.67,2335.2 1591.5,2336.5C 1583.43,2336.47 1577.1,2333.14 1572.5,2326.5C 1561.42,2341.51 1547.75,2353.67 1531.5,2363C 1523.71,2365.12 1518.21,2362.62 1515,2355.5C 1514.04,2341.41 1514.7,2327.41 1517,2313.5C 1519.36,2306.36 1521.2,2299.02 1522.5,2291.5C 1521.32,2291.28 1520.32,2291.61 1519.5,2292.5C 1512.67,2301.17 1506.34,2309.67 1500.5,2318C 1499.55,2318.48 1498.55,2318.65 1497.5,2318.5C 1497.67,2320.49 1497,2322.16 1495.5,2323.5C 1500.93,2332.96 1500.6,2342.29 1494.5,2351.5C 1485.9,2361.61 1476.9,2370.44 1467.5,2378C 1462.98,2380.51 1458.14,2382.01 1453,2382.5C 1449.59,2382.52 1446.59,2381.52 1444,2379.5C 1443.33,2375.83 1443.33,2372.17 1444,2368.5C 1448.99,2361.33 1453.83,2353.99 1458.5,2346.5C 1462,2342.89 1464.67,2339.22 1466.5,2335.5C 1467.38,2334.75 1468.38,2334.25 1469.5,2334C 1469.17,2333.67 1468.83,2333.33 1468.5,2333C 1471.89,2331.24 1474.56,2328.74 1476.5,2325.5C 1473.96,2323.45 1471.29,2321.62 1468.5,2320C 1468.83,2319.67 1469.17,2319.33 1469.5,2319C 1467.17,2318.33 1464.83,2318.33 1462.5,2319C 1462.83,2319.33 1463.17,2319.67 1463.5,2320C 1456.08,2322.57 1448.74,2325.24 1441.5,2328C 1432.48,2328.83 1423.48,2328.67 1414.5,2327.5C 1406.35,2323.45 1402.01,2316.78 1401.5,2307.5C 1399.56,2309.05 1398.39,2311.05 1398,2313.5C 1397.25,2314.13 1396.42,2314.63 1395.5,2315C 1396.45,2315.72 1396.62,2316.55 1396,2317.5C 1392.71,2321.21 1388.55,2323.21 1383.5,2323.5C 1378.61,2327.32 1373.28,2330.32 1367.5,2332.5C 1364.46,2331.13 1361.46,2329.8 1358.5,2328.5C 1358.5,2323.83 1358.5,2319.17 1358.5,2314.5C 1359.68,2314.72 1360.68,2314.39 1361.5,2313.5C 1360.67,2312.55 1360.51,2311.55 1361,2310.5C 1363.09,2306.74 1365.92,2303.57 1369.5,2301C 1368.36,2300.26 1368.36,2299.43 1369.5,2298.5C 1373.66,2295.83 1377.66,2292.99 1381.5,2290C 1384.83,2289.33 1388.17,2289.33 1391.5,2290C 1393,2290.83 1394.17,2292 1395,2293.5C 1395.33,2293.17 1395.67,2292.83 1396,2292.5C 1396.25,2293.62 1396.75,2294.62 1397.5,2295.5C 1401.61,2293.31 1405.94,2292.98 1410.5,2294.5C 1411.75,2296 1412.75,2297.67 1413.5,2299.5C 1414.2,2304.68 1415.54,2309.68 1417.5,2314.5C 1419.89,2317.18 1422.89,2318.51 1426.5,2318.5C 1435.7,2317.77 1444.37,2315.27 1452.5,2311C 1452.17,2310.67 1451.83,2310.33 1451.5,2310C 1454.51,2309.09 1457.51,2308.26 1460.5,2307.5C 1459.96,2301.6 1460.8,2295.93 1463,2290.5C 1469.79,2282.44 1478.45,2277.77 1489,2276.5C 1491.17,2276.67 1493.33,2276.83 1495.5,2277C 1495.17,2277.33 1494.83,2277.67 1494.5,2278C 1496.1,2278.27 1497.6,2278.77 1499,2279.5C 1499.5,2284.15 1499.67,2288.82 1499.5,2293.5C 1503.26,2289.9 1506.93,2286.07 1510.5,2282C 1510.17,2281.67 1509.83,2281.33 1509.5,2281C 1517.38,2271.95 1524.71,2262.45 1531.5,2252.5C 1533.62,2248.34 1535.29,2244.01 1536.5,2239.5C 1537.68,2239.72 1538.68,2239.39 1539.5,2238.5C 1537.83,2238.17 1536.17,2237.83 1534.5,2237.5C 1519.3,2238.66 1504.3,2240.66 1489.5,2243.5C 1487.62,2243.28 1485.95,2242.62 1484.5,2241.5C 1483.52,2238.91 1483.19,2236.25 1483.5,2233.5C 1486.46,2232.51 1489.46,2231.51 1492.5,2230.5C 1510.11,2228.17 1527.78,2226.5 1545.5,2225.5C 1548.97,2215.55 1553.31,2205.88 1558.5,2196.5C 1562.7,2193.86 1566.87,2193.86 1571,2196.5C 1571.17,2198.17 1571.33,2199.83 1571.5,2201.5C 1569.09,2209.2 1566.42,2216.86 1563.5,2224.5C 1580.49,2225.33 1597.49,2225.83 1614.5,2226C 1617.44,2228.6 1618.11,2231.76 1616.5,2235.5C 1615.22,2236.59 1613.72,2237.25 1612,2237.5C 1594.58,2235.6 1577.08,2234.93 1559.5,2235.5C 1555.41,2248.16 1551.24,2260.82 1547,2273.5C 1544.43,2274.38 1543.93,2275.88 1545.5,2278C 1544.99,2279.17 1544.16,2280 1543,2280.5C 1540.33,2289.21 1537.67,2297.88 1535,2306.5C 1531.33,2320.53 1529.16,2334.87 1528.5,2349.5C 1531.74,2348.55 1534.74,2347.05 1537.5,2345C 1542.51,2338.77 1547.84,2333.94 1553.5,2330.5C 1553.24,2329.02 1553.57,2327.69 1554.5,2326.5C 1561.4,2320.77 1567.4,2314.27 1572.5,2307C 1571.98,2306.44 1571.64,2305.77 1571.5,2305C 1578.72,2294.29 1588.72,2287.79 1601.5,2285.5C 1604.52,2286.53 1607.35,2287.86 1610,2289.5C 1610.33,2289.17 1610.67,2288.83 1611,2288.5C 1611.83,2292.87 1611.66,2297.2 1610.5,2301.5C 1604.87,2310.12 1596.87,2314.45 1586.5,2314.5C 1586.5,2316.5 1586.5,2318.5 1586.5,2320.5C 1589.38,2321.48 1592.38,2322.15 1595.5,2322.5C 1611.6,2320.56 1625.6,2315.06 1637.5,2306C 1639.13,2305.51 1640.8,2305.34 1642.5,2305.5C 1642.97,2298.02 1646.64,2292.69 1653.5,2289.5C 1655.06,2290.55 1656.72,2291.21 1658.5,2291.5C 1658.5,2296.17 1658.5,2300.83 1658.5,2305.5 Z M 1522.5,2287.5 C 1525.01,2288.22 1525.01,2289.22 1522.5,2290.5C 1521.91,2289.77 1521.91,2288.77 1522.5,2287.5 Z M 1499.5,2293.5 C 1499.5,2294.83 1498.83,2295.5 1497.5,2295.5C 1497.5,2294.17 1498.17,2293.5 1499.5,2293.5 Z M 1497.5,2295.5 C 1497.12,2297.26 1496.46,2298.92 1495.5,2300.5C 1491.35,2303.97 1488.02,2307.97 1485.5,2312.5C 1483.32,2312.72 1481.65,2311.88 1480.5,2310C 1486.06,2304.93 1491.73,2300.1 1497.5,2295.5 Z M 1658.5,2305.5 C 1658.34,2307.15 1657.67,2308.49 1656.5,2309.5C 1656.16,2307.52 1656.82,2306.18 1658.5,2305.5 Z M 1656.5,2309.5 C 1656.54,2310.76 1656.04,2311.76 1655,2312.5C 1654.42,2311 1654.92,2310 1656.5,2309.5 Z M 1633.5,2324.5 C 1633.64,2322.66 1634.31,2322.33 1635.5,2323.5C 1635.04,2324.3 1634.38,2324.63 1633.5,2324.5 Z M 1483.5,2335.5 C 1481.24,2342.12 1477.57,2348.45 1472.5,2354.5C 1470.12,2357.38 1467.28,2359.72 1464,2361.5C 1463.5,2361.17 1463,2360.83 1462.5,2360.5C 1469.59,2352.09 1476.59,2343.76 1483.5,2335.5 Z"/></g>
<g><path style="opacity:0.008" fill="#ca884f" d="M 2244.5,2212.5 C 2243.83,2211.17 2243.83,2211.17 2244.5,2212.5 Z"/></g>
<g><path style="opacity:0.814" fill="#ca884f" d="M 3494.5,2289.5 C 3494.97,2290.91 3495.97,2291.57 3497.5,2291.5C 3498.46,2293.33 3499.13,2295.33 3499.5,2297.5C 3498.41,2300.77 3497.74,2304.1 3497.5,2307.5C 3495.06,2307.35 3494.39,2308.19 3495.5,2310C 3494.67,2310.83 3493.83,2311.67 3493,2312.5C 3492.44,2316.59 3491.61,2320.59 3490.5,2324.5C 3492.46,2325.13 3494.46,2325.8 3496.5,2326.5C 3506.36,2323.24 3515.36,2318.4 3523.5,2312C 3524.49,2309.42 3526.83,2307.75 3530.5,2307C 3530.17,2306.67 3529.83,2306.33 3529.5,2306C 3531.08,2305.56 3532.41,2304.73 3533.5,2303.5C 3535.5,2299.5 3537.5,2295.5 3539.5,2291.5C 3541.72,2288.91 3544.39,2286.91 3547.5,2285.5C 3552.19,2286.17 3554.53,2288.84 3554.5,2293.5C 3552.99,2297.55 3551.83,2301.55 3551,2305.5C 3558.83,2297 3567,2288.83 3575.5,2281C 3581.71,2274.91 3588.54,2273.74 3596,2277.5C 3596.33,2280.32 3597.16,2282.99 3598.5,2285.5C 3595.57,2294.8 3592.73,2304.13 3590,2313.5C 3589.25,2314.13 3588.42,2314.63 3587.5,2315C 3588.99,2317.2 3588.66,2319.03 3586.5,2320.5C 3584.96,2325.83 3583.29,2331 3581.5,2336C 3582.83,2336.67 3584.17,2336.67 3585.5,2336C 3590.94,2331.07 3596.61,2325.57 3602.5,2319.5C 3605.64,2314.86 3609.3,2310.7 3613.5,2307C 3613.5,2306 3613.5,2305 3613.5,2304C 3620.65,2293.18 3630.65,2287.01 3643.5,2285.5C 3647.11,2285.65 3650.44,2286.65 3653.5,2288.5C 3655.88,2296.6 3653.55,2302.94 3646.5,2307.5C 3643.98,2308.73 3641.65,2310.23 3639.5,2312C 3636.5,2312.33 3633.5,2312.67 3630.5,2313C 3630.83,2313.33 3631.17,2313.67 3631.5,2314C 3630.5,2314.33 3629.5,2314.67 3628.5,2315C 3629.41,2316.7 3629.74,2318.53 3629.5,2320.5C 3646.93,2321.95 3661.93,2317.78 3674.5,2308C 3677.42,2306.77 3680.42,2305.77 3683.5,2305C 3683.17,2304.67 3682.83,2304.33 3682.5,2304C 3685.48,2303.5 3688.48,2303.34 3691.5,2303.5C 3691.5,2304.83 3691.5,2306.17 3691.5,2307.5C 3689.4,2307.2 3687.4,2307.53 3685.5,2308.5C 3668.48,2321.64 3649.31,2329.64 3628,2332.5C 3619.61,2332.25 3612.78,2328.92 3607.5,2322.5C 3601.2,2330.8 3593.87,2338.13 3585.5,2344.5C 3579.79,2347.24 3573.79,2348.08 3567.5,2347C 3567.83,2346.67 3568.17,2346.33 3568.5,2346C 3567.55,2345.52 3566.55,2345.35 3565.5,2345.5C 3563.45,2336.37 3562.95,2327.04 3564,2317.5C 3566.89,2308.85 3570.39,2300.35 3574.5,2292C 3574.17,2291.83 3573.83,2291.67 3573.5,2291.5C 3563.5,2301.17 3553.83,2311.17 3544.5,2321.5C 3541.49,2323.67 3538.49,2325.84 3535.5,2328C 3530.7,2329.03 3526.86,2327.53 3524,2323.5C 3523.38,2322.55 3523.55,2321.72 3524.5,2321C 3524,2320.83 3523.5,2320.67 3523,2320.5C 3514.7,2326.77 3505.86,2331.93 3496.5,2336C 3479.56,2338.71 3471.56,2331.54 3472.5,2314.5C 3470.47,2314.34 3468.47,2314.5 3466.5,2315C 3466.83,2315.33 3467.17,2315.67 3467.5,2316C 3458.43,2319.44 3449.77,2323.61 3441.5,2328.5C 3440.93,2339.65 3435.26,2349.65 3424.5,2358.5C 3419.82,2361.67 3414.82,2364.01 3409.5,2365.5C 3405.57,2365.03 3402.73,2363.03 3401,2359.5C 3400.67,2359.83 3400.33,2360.17 3400,2360.5C 3399.33,2357.83 3399.33,2355.17 3400,2352.5C 3407.2,2341.97 3416.03,2333.14 3426.5,2326C 3421.7,2322.54 3417.2,2318.7 3413,2314.5C 3401.69,2324.32 3389.19,2332.15 3375.5,2338C 3367.84,2339.45 3361.18,2337.62 3355.5,2332.5C 3354.69,2330.58 3354.19,2328.58 3354,2326.5C 3352.66,2328.84 3351.32,2331.17 3350,2333.5C 3343.95,2339.46 3338.45,2345.29 3333.5,2351C 3330.91,2351.63 3328.57,2352.8 3326.5,2354.5C 3322.5,2355.83 3318.5,2355.83 3314.5,2354.5C 3309.85,2350.06 3308.02,2344.73 3309,2338.5C 3309.83,2337.67 3310.67,2336.83 3311.5,2336C 3310.41,2333.94 3310.24,2331.77 3311,2329.5C 3312.81,2325.29 3314.31,2320.95 3315.5,2316.5C 3314.32,2316.28 3313.32,2316.61 3312.5,2317.5C 3306.01,2324.57 3298.34,2329.91 3289.5,2333.5C 3285.09,2335.07 3281.43,2334.07 3278.5,2330.5C 3278.18,2328.95 3277.18,2328.29 3275.5,2328.5C 3275.33,2322.82 3275.5,2317.16 3276,2311.5C 3276.33,2311.83 3276.67,2312.17 3277,2312.5C 3278.04,2307.08 3280.21,2302.08 3283.5,2297.5C 3287.21,2292.47 3291.71,2291.13 3297,2293.5C 3299.14,2294.48 3300.31,2296.14 3300.5,2298.5C 3296.69,2305.45 3294.02,2312.78 3292.5,2320.5C 3293.55,2320.65 3294.55,2320.48 3295.5,2320C 3306.75,2309.09 3318.42,2297.76 3330.5,2286C 3333.75,2283.07 3337.08,2282.9 3340.5,2285.5C 3341.66,2288.78 3341.82,2292.12 3341,2295.5C 3335.54,2309 3330.54,2322.67 3326,2336.5C 3325.33,2338.83 3325.33,2341.17 3326,2343.5C 3335.71,2333.12 3345.05,2322.46 3354,2311.5C 3355.78,2303.26 3359.61,2296.26 3365.5,2290.5C 3369.76,2289.1 3373.43,2290.1 3376.5,2293.5C 3376.83,2294.83 3377.17,2296.17 3377.5,2297.5C 3376.72,2300.52 3375.89,2303.52 3375,2306.5C 3374.67,2306.17 3374.33,2305.83 3374,2305.5C 3371.48,2310.54 3369.65,2315.88 3368.5,2321.5C 3368.9,2324.73 3370.73,2326.4 3374,2326.5C 3380.55,2324.41 3386.71,2321.57 3392.5,2318C 3398.38,2312.44 3404.38,2308.11 3410.5,2305C 3410.17,2304.67 3409.83,2304.33 3409.5,2304C 3410.13,2299.64 3411.47,2295.48 3413.5,2291.5C 3424.76,2278.91 3438.09,2271.24 3453.5,2268.5C 3456.73,2269.39 3459.73,2270.72 3462.5,2272.5C 3463.83,2276.83 3463.83,2281.17 3462.5,2285.5C 3453.34,2295.51 3442.67,2303.34 3430.5,2309C 3432.71,2311.7 3435.37,2313.87 3438.5,2315.5C 3439.39,2316.32 3439.72,2317.32 3439.5,2318.5C 3446.23,2315.64 3452.9,2312.47 3459.5,2309C 3459.17,2308.67 3458.83,2308.33 3458.5,2308C 3460.17,2307.67 3461.83,2307.33 3463.5,2307C 3463.17,2306.67 3462.83,2306.33 3462.5,2306C 3465.84,2304.41 3469.84,2303.41 3474.5,2303C 3474.17,2302.67 3473.83,2302.33 3473.5,2302C 3475.81,2301.5 3478.14,2301.34 3480.5,2301.5C 3481.55,2293.25 3486.22,2289.25 3494.5,2289.5 Z M 3494.5,2289.5 C 3496.18,2289.29 3497.18,2289.95 3497.5,2291.5C 3495.97,2291.57 3494.97,2290.91 3494.5,2289.5 Z M 3317.5,2312.5 C 3317.77,2314.38 3317.1,2315.71 3315.5,2316.5C 3314.94,2314.93 3315.61,2313.6 3317.5,2312.5 Z"/></g>
<g><path style="opacity:0.715" fill="#ca884f" d="M 3372.5,2273.5 C 3377.58,2271.82 3382.41,2272.48 3387,2275.5C 3387.17,2277.5 3387.33,2279.5 3387.5,2281.5C 3387.41,2283.96 3386.74,2286.13 3385.5,2288C 3385.83,2288.33 3386.17,2288.67 3386.5,2289C 3383.19,2289.18 3380.86,2290.02 3379.5,2291.5C 3375.39,2290.09 3371.89,2287.76 3369,2284.5C 3367.35,2279.51 3368.85,2276.01 3373.5,2274C 3373.27,2273.6 3372.94,2273.43 3372.5,2273.5 Z"/></g>
<g><path style="opacity:0.711" fill="#ca884f" d="M 3497.5,2291.5 C 3497.18,2289.95 3496.18,2289.29 3494.5,2289.5C 3493.9,2287.97 3492.73,2286.97 3491,2286.5C 3490.33,2282.83 3490.33,2279.17 3491,2275.5C 3491.33,2275.83 3491.67,2276.17 3492,2276.5C 3492.5,2275.33 3493.33,2274.5 3494.5,2274C 3494.17,2273.67 3493.83,2273.33 3493.5,2273C 3506,2270.34 3511,2275.17 3508.5,2287.5C 3505.33,2290.22 3501.66,2291.56 3497.5,2291.5 Z"/></g>
<g><path style="opacity:0.008" fill="#ca884f" d="M 3132.5,2278.5 C 3133.83,2279.17 3133.83,2279.17 3132.5,2278.5 Z"/></g>
<g><path style="opacity:0.008" fill="#ca884f" d="M 3278.5,2330.5 C 3277.83,2331.17 3277.83,2331.17 3278.5,2330.5 Z"/></g>
</svg>
