<svg xmlns="http://www.w3.org/2000/svg" viewBox="0 0 600 600">
  <rect width="600" height="600" rx="50" fill="#faece9"/>
  <ellipse cx="306" cy="440" rx="184" ry="37" fill="#5e2a2a" opacity=".12"/>
  <path d="M167 334c1-98 65-174 155-174 100 0 157 68 157 161 0 93-75 151-174 151-87 0-139-48-138-138z" fill="#b8463e"/>
  <path d="M215 331c0-56 39-100 96-100 63 0 100 37 100 94 0 54-43 88-107 88-55 0-89-29-89-82z" fill="#ed8e82"/>
  <path d="M269 327c0-27 20-48 48-48 31 0 49 18 49 45 0 26-21 43-52 43-27 0-45-14-45-40z" fill="#fff1e7"/>
  <circle cx="319" cy="323" r="13" fill="#ded2c5"/>
</svg>
