<svg xmlns="http://www.w3.org/2000/svg" viewBox="0 0 800 480">
  <defs><linearGradient id="a" x2="1" y2="1"><stop stop-color="#e7f2e9"/><stop offset="1" stop-color="#f9dca2"/></linearGradient></defs>
  <rect width="800" height="480" rx="38" fill="url(#a)"/>
  <rect x="125" y="145" width="550" height="255" rx="18" fill="#fffaf2"/>
  <path d="M91 145h618l-53-91H145z" fill="#1d6b4f"/>
  <path d="M91 145h618v35c0 38-31 69-69 69-30 0-56-19-65-47-9 28-35 47-65 47s-56-19-65-47c-9 28-35 47-65 47s-56-19-65-47c-9 28-35 47-65 47-38 0-69-31-69-69z" fill="#f7c65d"/>
  <path d="M194 145h103v52c0 27-20 49-46 53-32-1-57-25-57-53zM400 145h103v52c0 27-20 49-46 53-32-1-57-25-57-53zM606 145h103v35c0 35-26 64-60 68-25-10-43-35-43-64z" fill="#e96d45"/>
  <rect x="183" y="296" width="156" height="104" rx="12" fill="#b8d9ca"/>
  <rect x="402" y="280" width="180" height="120" rx="10" fill="#173f33"/>
  <circle cx="448" cy="332" r="27" fill="#e96d45"/><circle cx="496" cy="335" r="30" fill="#f7c65d"/><circle cx="541" cy="340" r="24" fill="#74ad6a"/>
  <path d="M96 430h610" stroke="#173f33" stroke-width="13" stroke-linecap="round" opacity=".13"/>
</svg>
